<?xml version="1.0" standalone="no"?>
<!DOCTYPE svg PUBLIC "-//W3C//DTD SVG 1.1//EN" "http://www.w3.org/Graphics/SVG/1.1/DTD/svg11.dtd" >
<!--
2013-9-30: Created.
-->
<svg>
<metadata>
Created by iconfont
</metadata>
<defs>

<font id="iconfont" horiz-adv-x="1024" >
  <font-face
    font-family="iconfont"
    font-weight="500"
    font-stretch="normal"
    units-per-em="1024"
    ascent="896"
    descent="-128"
  />
    <missing-glyph />
    
    <glyph glyph-name="x" unicode="x" horiz-adv-x="1001"
d="M281 543q-27 -1 -53 -1h-83q-18 0 -36.5 -6t-32.5 -18.5t-23 -32t-9 -45.5v-76h912v41q0 16 -0.5 30t-0.5 18q0 13 -5 29t-17 29.5t-31.5 22.5t-49.5 9h-133v-97h-438v97zM955 310v-52q0 -23 0.5 -52t0.5 -58t-10.5 -47.5t-26 -30t-33 -16t-31.5 -4.5q-14 -1 -29.5 -0.5
t-29.5 0.5h-32l-45 128h-439l-44 -128h-29h-34q-20 0 -45 1q-25 0 -41 9.5t-25.5 23t-13.5 29.5t-4 30v167h911zM163 247q-12 0 -21 -8.5t-9 -21.5t9 -21.5t21 -8.5q13 0 22 8.5t9 21.5t-9 21.5t-22 8.5zM316 123q-8 -26 -14 -48q-5 -19 -10.5 -37t-7.5 -25t-3 -15t1 -14.5
t9.5 -10.5t21.5 -4h37h67h81h80h64h36q23 0 34 12t2 38q-5 13 -9.5 30.5t-9.5 34.5q-5 19 -11 39h-368zM336 498v228q0 11 2.5 23t10 21.5t20.5 15.5t34 6h188q31 0 51.5 -14.5t20.5 -52.5v-227h-327z" />
    

    
    <glyph glyph-name="weixin1" unicode="&#59040;" d="M506.942 550.079c25.259 0 42.134 16.916 42.134 42.107 0 25.477-16.848 41.956-42.134 41.956-25.299 0-50.668-16.48-50.668-41.956 0.028-25.204 25.409-42.107 50.668-42.107v0zM506.942 550.079zM271.257 634.143c-25.259 0-50.79-16.48-50.79-41.956 0-25.19 25.532-42.107 50.79-42.107 25.163 0 42.012 16.916 42.012 42.107-0.014 25.477-16.834 41.956-42.012 41.956v0zM271.257 634.143zM1010.654 280.508c0 133.202-123.563 246.702-275.237 258.512 0.205 1.652 0.301 3.373-0.068 5.092-30.406 141.79-182.886 248.695-354.7 248.695-194.15 0-352.119-135.387-352.119-301.793 0-89.279 45.574-169.725 131.946-233.158l-30.106-90.508c-1.939-5.885-0.177-12.37 4.506-16.452 2.853-2.458 6.445-3.741 10.076-3.741 2.335 0 4.697 0.546 6.867 1.625l113.036 56.565 13.926-2.827c34.802-7.154 64.853-13.353 101.868-13.353 10.895 0 40.878 3.987 43.404 7.182 40.755-101.99 153.094-175.61 285.273-175.61 33.86 0 68.13 8.164 98.891 15.866l87.136-47.636c2.307-1.257 4.847-1.911 7.359-1.911 3.441 0 6.881 1.161 9.639 3.413 4.847 3.932 6.841 10.404 5.038 16.33l-22.255 74.001c74.602 58.955 115.521 129.488 115.521 199.708v0zM409.798 230.25c-9.626-0.833-19.388-1.243-29.082-1.243-32.686 0-60.334 5.652-92.31 12.26l-18.582 3.755c-3.195 0.683-6.567 0.245-9.503-1.269l-81.687-40.892 21.231 63.775c2.076 6.24-0.205 13.053-5.57 16.821-82.070 57.207-123.659 126.894-123.659 207.093 0 144.179 139.087 261.516 310.067 261.516 151.142 0 284.959-91.955 312.579-214.261-158.475-2.076-286.706-113.487-286.706-250.32 0-19.893 3.018-39.171 8.11-57.767-1.542 0.382-3.168 0.683-4.887 0.532v0zM860.371 107.301c-4.875-3.673-6.935-10.007-5.188-15.852l13.804-45.903-56.647 30.993c-2.157 1.188-4.588 1.803-7.004 1.803-1.188 0-2.389-0.15-3.564-0.464-30.379-7.674-61.822-15.593-92.433-15.593-142.186 0-257.857 97.717-257.857 217.811 0 120.095 115.658 217.771 257.857 217.771 139.469 0 257.325-99.724 257.325-217.771 0-59.87-37.738-121.255-106.291-172.797v0zM868.181 98.822zM616.454 389.994c-16.848 0-33.696-16.971-33.696-33.792 0-16.944 16.848-33.669 33.696-33.669 25.313 0 42.038 16.725 42.038 33.669 0 16.848-16.725 33.792-42.038 33.792v0zM616.454 389.994zM801.58 389.994c-16.603 0-33.451-16.971-33.451-33.792 0-16.944 16.848-33.669 33.451-33.669 25.231 0 42.257 16.725 42.257 33.669 0 16.848-16.998 33.792-42.257 33.792v0zM801.58 389.994z"  horiz-adv-x="1024" />

    
    <glyph glyph-name="shouji" unicode="&#59148;" d="M782 894h-540c-39.8 0-72-32.2-72-72v-876c0-39.8 32.2-72 72-72h540c39.8 0 72 32.2 72 72v876c0 39.8-32.2 72-72 72zM792-54c0-5.5-4.5-10-10-10h-540c-5.5 0-10 4.5-10 10v876c0 5.5 4.5 10 10 10h540c5.5 0 10-4.5 10-10v-876zM450 38c0-34.242 27.758-62 62-62s62 27.758 62 62c0 34.242-27.758 62-62 62-34.242 0-62-27.758-62-62zM587 762h-150c-13.8 0-25-11.3-25-25s11.3-25 25-25h150c13.8 0 25 11.3 25 25s-11.2 25-25 25z"  horiz-adv-x="1024" />

    
    <glyph glyph-name="mima" unicode="&#58962;" d="M881.627409 528.5727l-33.152051 0c0.353041 2.012843 0.470721 4.104481 0.314155 6.245238-2.741437 37.419238-11.31572 73.77526-25.590841 108.396779-17.012466 41.262776-41.362037 78.314647-72.371284 110.125143-31.008224 31.810496-67.125817 56.789401-107.348913 74.241888-41.659819 18.076704-85.895299 27.241434-131.478474 27.241434-45.583175 0-89.818655-9.165754-131.479497-27.241434-40.223097-17.452487-76.340689-42.431392-107.348913-74.241888-31.009248-31.810496-55.357795-68.862367-72.371284-110.125143-14.275121-34.621519-22.848381-70.977541-25.590841-108.396779-0.156566-2.140757-0.038886-4.232394 0.314155-6.245238l-49.682539 0c-50.327222 0-91.27175-40.944528-91.27175-91.27175l0-431.924243c0-50.328245 40.944528-91.27175 91.27175-91.27175l755.785306 0c50.327222 0 91.270726 40.944528 91.270726 91.27175L972.897112 437.30095C972.898135 487.628172 931.953607 528.5727 881.627409 528.5727zM237.227959 531.115616c5.167696 66.944691 33.06507 129.168872 79.859839 177.173189 52.062749 53.40942 121.284297 82.82231 194.912202 82.82231s142.848429-29.413913 194.911178-82.82231c46.793746-48.004317 74.692143-110.227474 79.859839-177.173189 0.066515-0.861624 0.178055-1.708921 0.327458-2.542916L236.901525 528.5727C237.049904 529.406694 237.161445 530.253992 237.227959 531.115616zM906.383232 5.376707c0-13.650905-11.105942-24.756847-24.755824-24.756847L125.842103-19.38014c-13.650905 0-24.756847 11.106965-24.756847 24.756847L101.085256 437.30095c0 13.650905 11.105942 24.756847 24.756847 24.756847l755.785306 0c13.650905 0 24.755824-11.105942 24.755824-24.756847L906.383232 5.376707zM507.520989 358.334457c-28.492938-2.116197-51.582819-24.984021-53.946656-53.457516-1.706875-20.553105 7.198959-39.111786 21.832238-50.811246 10.066263-8.049327 15.652492-20.453844 15.652492-33.342386L491.059062 106.700393c0-10.666944 7.378038-20.208251 17.86795-22.143323 13.882172-2.561335 26.107611 8.16496 26.107611 21.60711L535.034623 222.470093c0 12.583596 5.417383 24.604374 14.992459 32.769334 12.610202 10.752902 20.60734 26.755364 20.60734 44.626383C570.634422 333.730083 541.92659 360.889653 507.520989 358.334457z"  horiz-adv-x="1024" />

    
    <glyph glyph-name="qingchu" unicode="&#58922;" d="M511.706311 831.978894C264.433578 831.978894 63.981197 631.52549 63.981197 384.254803s200.451358-447.724091 447.724091-447.724091c247.270686 0 447.724091 200.453405 447.724091 447.724091S758.976998 831.978894 511.706311 831.978894zM752.447281 202.877873c16.396435-16.382109 16.396435-42.971697 0-59.353806-8.197706-8.197706-18.937305-12.297071-29.676903-12.297071s-21.479197 4.099365-29.676903 12.297071L511.711428 324.906114 330.328357 143.523043c-8.197706-8.197706-18.937305-12.297071-29.676903-12.297071-10.739599 0-21.479197 4.099365-29.676903 12.297071-16.396435 16.382109-16.396435 42.971697 0 59.353806L452.356598 384.25992 270.974551 565.641967c-16.396435 16.382109-16.396435 42.971697 0 59.353806 16.396435 16.396435 42.958394 16.396435 59.353806 0L511.711428 443.613726l181.382047 181.382047c16.396435 16.396435 42.957371 16.396435 59.353806 0 16.396435-16.382109 16.396435-42.971697 0-59.353806L571.065234 384.25992 752.447281 202.877873z"  horiz-adv-x="1024" />

    
    <glyph glyph-name="duanxin" unicode="&#58915;" d="M893.686 724.655H130.312c-55.326 0-100.6-45.272-100.6-100.601V97.99c0-55.328 45.272-100.603 100.6-100.603h763.374c55.328 0 100.603 45.274 100.603 100.603V624.054c-0.001 55.329-45.275 100.601-100.603 100.601m37.723-626.663c0-9.968-3.954-19.404-11.13-26.587-7.185-7.185-16.629-11.137-26.594-11.137H130.312c-9.965 0-19.41 3.952-26.592 11.137-7.177 7.183-11.13 16.619-11.13 26.587V624.054c0 9.967 3.954 19.412 11.13 26.594 7.182 7.175 16.626 11.131 26.592 11.131h763.374c9.965 0 19.412-3.956 26.594-11.131 7.178-7.182 11.133-16.628 11.133-26.594v-526.062h-0.004m0 0zM815.983 569.292l-295.53-221.65-295.529 221.65c-13.883 10.416-33.594 7.6-44.01-6.288-10.417-13.893-7.603-33.597 6.287-44.013l314.394-235.797c0.007-0.008 0.02-0.014 0.025-0.019 0.69-0.516 1.399-1.002 2.126-1.457 0.016-0.013 0.04-0.026 0.066-0.037a30.93 30.93 0 0 1 1.949-1.124c0.15-0.076 0.294-0.152 0.444-0.227 0.666-0.341 1.338-0.666 2.028-0.954 0.126-0.056 0.254-0.096 0.378-0.148a35.8 35.8 0 0 1 1.682-0.624c0.293-0.104 0.587-0.192 0.886-0.288 0.415-0.127 0.835-0.245 1.255-0.354 0.299-0.079 0.593-0.164 0.895-0.234 0.637-0.144 1.277-0.271 1.927-0.387 0.294-0.045 0.582-0.082 0.876-0.119 0.454-0.065 0.904-0.118 1.355-0.161 0.275-0.023 0.551-0.056 0.828-0.071 0.666-0.045 1.324-0.071 1.99-0.079 0.043 0 0.085-0.006 0.127-0.006h0.055c0.04 0 0.085 0.006 0.127 0.006a35.323 35.323 0 0 1 1.985 0.079c0.275 0.016 0.553 0.048 0.828 0.071 0.457 0.043 0.906 0.096 1.361 0.161 0.293 0.037 0.582 0.074 0.875 0.119 0.648 0.11 1.291 0.24 1.934 0.387 0.293 0.07 0.59 0.155 0.883 0.234 0.42 0.109 0.846 0.228 1.261 0.359 0.294 0.091 0.587 0.18 0.88 0.283 0.572 0.19 1.135 0.399 1.693 0.629 0.118 0.048 0.245 0.088 0.367 0.144 0.689 0.288 1.361 0.61 2.033 0.954 0.15 0.071 0.293 0.147 0.443 0.227 0.654 0.35 1.301 0.715 1.938 1.111l0.085 0.056a31.568 31.568 0 0 1 2.104 1.443 0.105 0.105 0 0 0 0.037 0.024l314.396 235.797c13.889 10.417 16.702 30.123 6.279 44.012-10.419 13.886-30.121 16.707-44.013 6.291m0 0z"  horiz-adv-x="1024" />

    
    <glyph glyph-name="wodebudaiquan" unicode="&#58949;" d="M276.3 405.8c-2.2 0-4-0.3-5.3-0.9 1.9 0.6 3.9 0.9 5.9 0.9h-0.6m610.5-243.2c0.1 1.1 0.2 2.2 0.4 3.3-0.2-0.5-0.4-1.5-0.4-3.3m40.7 449.3v0.6-0.6m-40.7 0.1v0.6-0.6m24.5-611.2c-5.7 42.7-18.3 83.9-37.3 122.5-3.7 7.5-7.6 15-11.8 22.2l-0.1 0.1c-18.1 30.6-40.3 59-66.1 84.4-5.6 5.5-11.4 10.9-17.4 16.1-42.5 37.2-91.6 64.9-143.9 81.7 9.5 5.3 18.7 11.2 27.4 17.6 10.1 7.5 19.7 15.7 28.5 24.6C738 417.2 764 480 764 546.7c0 66.7-26 129.5-73.2 176.6-46.3 46.3-107.6 72.2-173 73.1h-6.2c-65.4-0.9-126.7-26.8-173-73.1-47.2-47.2-73.2-109.9-73.2-176.6 0-66.7 26-129.5 73.2-176.6 8.9-8.9 18.4-17.1 28.5-24.6 8.8-6.5 17.9-12.4 27.4-17.6-52.3-16.8-101.4-44.4-143.9-81.7-5.9-5.2-11.7-10.6-17.4-16.1-25.9-25.4-48.1-53.8-66.2-84.5-4.2-7.3-8.1-14.7-11.8-22.2-19-38.6-31.5-79.8-37.3-122.5-1.8-13.7 7.8-26.2 21.4-28.1 1.1-0.2 2.3-0.2 3.4-0.2 1 0 2 0.1 3 0.2 9.9 2.2 17.9 10.2 19.4 20.8 11.5 79 49.2 150.8 103.3 205.5C332.6 264 420.1 304.8 514.6 305h0.5c94.3-0.3 181.5-41.1 245.6-105.9 54.1-54.7 91.8-126.5 103.3-205.5 1.6-10.6 9.5-18.6 19.4-20.8h0.1c1-0.1 2-0.2 3-0.2 1.1 0 2.2 0.1 3.4 0.2 13.7 1.8 23.3 14.4 21.4 28m-397.1 346h-1.5c-93.2 0.7-176.4 65.5-199.1 152.4-0.3 1-0.5 1.9-0.7 2.9-3.6 14.6-5.5 29.6-5.4 44.6 0 15.3 1.9 30.4 5.4 45 0.2 1 0.5 1.9 0.7 2.9 22.8 89.1 106.7 159.9 200.6 159.9h1.1c93.8 0 177.7-70.8 200.6-159.9 0.3-1 0.5-1.9 0.7-2.9 3.6-14.6 5.4-29.7 5.4-45s-1.9-30.3-5.4-44.6c-0.2-1-0.5-1.9-0.7-2.9-22.8-86.9-105.9-151.7-199.2-152.3-0.8-0.1-1.7-0.1-2.5-0.1"  horiz-adv-x="1024" />

    
    <glyph glyph-name="weixinzhifu-huise" unicode="&#58950;" d="M735.4 806.2H288.6C178.9 806.2 90 717.3 90 607.6v-446.8c0-109.7 88.9-198.6 198.6-198.6h446.8c109.7 0 198.6 88.9 198.6 198.6V607.6c0 109.7-88.9 198.6-198.6 198.6zM512 159.1c-31.5 0-61.8 4.4-90.1 12.4-8.4-1.5-16.6-4-24.4-7.3l-55.3-34.7c-16.4-11-21.7-6.8-16 12.4l12.3 43.4c0.8 8.6 0.1 17.2-2.2 25.5-66.8 44.5-109.8 113.7-109.8 191.2 0 133.8 128.2 242.9 285.5 242.9 95.9 0 181-40.6 232.8-102.6L478.7 415.9c-18.3-11-36.7-13.4-55 3.5l-42.4 38.2c-19.4 5.8-26.3-0.4-20.6-18.5l45.9-112.2c10.3-16.8 25.5-22.5 51.6-3.5l308.7 188c19.6-32.9 30.7-70 30.7-109.3-0.1-133.9-128.4-243-285.6-243z m0 0"  horiz-adv-x="1024" />

    
    <glyph glyph-name="yuanquan" unicode="&#58951;" d="M501.3-66.7c-60.4 0-119 11.8-174.2 35.2-53.2 22.5-101.1 54.8-142.2 95.9-41.1 41.1-73.3 88.9-95.9 142.2-23.3 55.2-35.2 113.8-35.2 174.2 0 60.4 11.8 119 35.2 174.2 22.5 53.3 54.8 101.1 95.9 142.2 41.1 41.1 88.9 73.3 142.2 95.9 55.2 23.3 113.8 35.2 174.2 35.2 60.4 0 119-11.8 174.2-35.2 53.3-22.5 101.1-54.8 142.2-95.9 41.1-41.1 73.3-88.9 95.9-142.2 23.3-55.2 35.2-113.8 35.2-174.2 0-60.4-11.8-119-35.2-174.2-22.5-53.3-54.8-101.1-95.9-142.2s-88.9-73.3-142.2-95.9c-55.2-23.3-113.8-35.2-174.2-35.2z m0 854.9c-224.7 0-407.4-182.8-407.4-407.4 0-224.7 182.8-407.4 407.4-407.4 224.7 0 407.4 182.8 407.4 407.4 0.1 224.6-182.7 407.4-407.4 407.4z"  horiz-adv-x="1024" />

    
    <glyph glyph-name="yinlian-huise" unicode="&#58952;" d="M235.14552 129.8l75 322.1c-0.7 0.2-1.4 0.3-2.2 0.3-3.1 0-6.3-1.5-9.6-3-1.8-6.5-5.4-24.5-7.2-32.8-3.7-17.4-3.9-19.3-5.6-28l-1.1-1.1c-13.2 0.2-17.8 0.2-32.9-0.5l-0.7 1.2c2.6 10.3 5.1 20.7 7.5 31.1 6.4 28 7.9 38.7 9.7 53l1.2 0.9c14.8 2 18.4 2.5 34.4 5.8l1.3-1.5-2.4-8.9c2.7 1.6 5.3 3.3 8.1 4.7 1.6 0.8 3.2 1.4 4.9 2l38.1 163.7c8.4 35.7 43.9 64.6 79.4 64.6H199.64552c-35.6 0-71.2-29-79.4-64.6L1.74552 129.8c-8.3-35.6 13.8-64.5 49.3-64.5h233.4c-35.7 0-57.7 28.9-49.3 64.5zM211.84552 397.4c-11.4-6.9-28.2-10.7-46.1-10.7-13.9 0-38.5 2.2-47.1 17.3-2.7 4.8-4 10.4-4 17.3l3.1 23.2 1.6 7.1 18.9 83.7s1 4.6 1.2 5.4c0.4-0.6 6.8-0.9 42.9-0.6-0.1-0.3-0.2-0.5-0.3-1.1-3.3-9.8-21.9-84.1-21.9-84.1 0-0.1-3.6-22.2-3.6-22.2l0.2-3.7c1.2-10.9 8-16.7 19.5-16.7 7.2 0 13.4 2.1 18.8 6.5 9.4 7.6 12.1 19.4 15.9 35.8 0.1 0.1 17.7 81.6 18.7 86 2.5-0.6 10.2-0.8 36.3-0.6-0.1-0.3-0.2-0.7-0.3-1.1-3.3-10-22.4-87.2-22.4-87.2l-2.1-8.3c-4.4-16-9.6-34.3-29.3-46z m0 0M518.74552 129.8l19.7 84.5h-8.4c-6.9 0-12 0.1-15.5 0.4-3.4 0.2-6.9 0-9.2 1.8-2 1.8-5.2 4.1-5.1 6.6 0.2 2.2 1.1 6 2.6 11l39.7 131.7H570.84552l-4.1-14.3s1.8 1.5 4.4 3.3l7.6 32.5c-5.1 0-10.1-0.2-18.5-0.6l-0.6 1.1c1.3 5.7 2.7 11.3 4.1 17.1l1.8 7.8c2.8 12.1 5.5 26.2 5.8 30.5 0.3 2.6 1.1 9-6.2 9-3.2 0-6.4-1.5-9.7-3-1.8-6.5-5.5-24.5-7.2-32.8-3.6-17.4-3.9-19.3-5.5-28l-1.1-1.1c-13.2 0.2-17.7 0.2-32.9-0.5l-0.7 1.2c2.5 10.3 5 20.7 7.5 31.1 6.4 28 7.8 38.7 9.6 53l1.2 0.9c14.8 2 18.4 2.5 34.4 5.8l1.3-1.5-2.3-8.9c2.6 1.6 5.3 3.2 8.1 4.7 7.5 3.7 16 4.8 20.5 4.8 3.8 0 7.7-0.6 11.1-2.4l38 163.3c8.3 35.6 43.9 64.6 79.5 64.6H435.54552c-35.5 0-71-29-79.4-64.6l-38.1-163.7c6.1 2.1 12 2.8 15.7 2.8 7 0 14.7-2 17.9-10.1 3.1-7.2 1.1-16.2-3-33.7l-2.1-8.9c-4.1-19.5-4.8-23.1-7.1-36.5l-1.5-1.1c-12.8 0.2-17.3 0.2-32.3-0.5l-0.6 1.1c1.3 5.7 2.7 11.3 4 17.1l1.8 7.8c2.8 12.1 5.5 26.2 5.8 30.5 0.2 2.3 0.9 7.6-4.1 8.8l-75-322.1c-8.4-35.6 13.7-64.5 49.3-64.5h281.1c-35.5-0.5-57.6 28.4-49.2 64z m9.5 225.2l-6.1-20.2h-45.4l-4.9-4.3c-2.1-2-2.8-1.2-5.6-2.7-2.6-1.3-8-3.8-15-3.8h-14.6l5.9 19.5h4.4c3.7 0 6.2 0.3 7.5 1.1 1.4 0.9 3.1 3 4.9 6.3l8.4 15.2H500.84552l-5.8-11.1h33.2zM408.94552 462c-1.3-4.8-5.4-20.7-6.6-25.5-1.4-5.8-2.9-11.5-4.3-17.2-2.9-12.2-4-16.7-4.7-19.9-0.7-3.1-0.8-4.8-2-11.1l-0.7-0.6-0.7-0.5c-7.7 0-12.7 0.2-17.5 0-4.8 0-9.5-0.3-16.7-0.5l-0.4 0.5-0.5 0.6c1.9 7 3 9.4 4 11.9s1.9 5 3.6 12.1c2.2 9.2 3.6 15.7 4.6 21.3 1 5.2 4.4 20.7 5.1 25.7-0.7 3.7 1.5 8 6.6 11.5 8 5.6 20 6.8 26.8 2.8 4.5-2.6 5.5-6.9 3.4-11.1z m6.4-30.1c2.8 11.8 7.3 24.2 17.1 33.2 13.7 12.6 31.2 13.4 38.5 13.4 12.2 0 24-2.8 30.7-11.3 4.4-5.6 7.8-14.8 3.3-34.5-1.3-5.9-5.3-20.3-14-30-11.2-12-26.2-16-40.8-16-5.7 0-14.5 0.7-20.8 3.3-20 8.1-16.8 29.8-14 41.9z m69.6-217.5h-37.4c-3 0-5.3 0.4-8.5 1.1-3.2 0.8-4.5 2.2-6 4.4-1.4 2.2-3.4 4-2 8.6l10.7 35.6h-18.4l6.1 20.3h18.5l4.9 16.5h-18.4l5.9 19.4h81.1l-6-19.4h-32.5l-5-16.5h33.2l-6-20h-33.2l-8-26.8c-1-3 7.9-3.4 11-3.4l16.6 2.3-6.6-22.1z m0 0M565.54552 344.2l-6.8-22.5s2 1.8 5.5 3.9l4.3 18.6h-3zM454.34552 407c3.6 0 6.9 2.3 9.6 6.2 4 5.3 6.8 17.6 7.5 20.9 3.5 15 3 24.2-5 24.2-10.1 0-14.1-12.5-17.5-27.4-1.2-5.1-2.1-9.9-2-14.6 0.1-9.3 6.4-9.3 7.4-9.3z m81.4-162.7c-1.2-4.1-1.8-6-1-7.1 0.7-1 2.1-2.1 4.2-2.1l4.3 0.4 11.6 50h-6.7l-12.4-41.2z m20.5 68.9l-2.9-9.4h5.9l2.2 9.4h-5.2z m0 0M774.64552 406.7c3.6 0 9.8 2.3 12.4 6 1.4 1.8 2.7 4.6 3.7 7.5 1.1 4.4 2.2 8.7 3.2 13.1 0.7 3 1.3 5.7 1.8 8.2 0.7 10.2-2.7 16.1-9.1 16.1-10.2 0-14.1-12.4-17.5-27-1.2-5.2-2.1-10-2.1-14.6 0.3-9.3 6.6-9.3 7.6-9.3zM599.74552 304l3 9.2h-41.3l-2.2-9.4h34.3c4.8 0.6 5.8 0 6.2 0.2z m0 0M973.34552 703.1H718.84552c-35.6 0-71.2-29-79.5-64.6l-38-163.3c2.9-1.5 5.4-3.9 6.9-7.7 3-7.2 1-16.2-3.1-33.7l-2-8.9c-4.2-19.5-4.8-23.1-7-36.5l-1.6-1.1c-4.6 0.1-9.1 0.1-13.7 0.1l-7.6-32.5c3.1 2.2 7.4 5 10.8 6.4 6.2 2.4 20.4 4.5 20.4 4.5l45.8 0.2-15.6-52c-2.6-8.9-5.7-14.7-7.6-17.3-1.7-2.7-3.8-4.9-7.8-7.2-3.9-2-7.4-3.2-10.6-3.6-3.1-0.2-7.7-0.4-14.1-0.4h-37.4l-11.6-50 15.2 1.4-6.6-22.6h-13.5l-19.7-84.5c-8.4-35.6 13.7-64.5 49.3-64.5h254.4c35.7 0 71.2 28.9 79.5 64.5l118.5 508.7c8.3 35.7-13.8 64.6-49.3 64.6zM791.54552 477.6c5.4-2.1 8.8-5.3 11.2-9.2 0.2 1.2 0.3 2.4 0.5 3.6l1.1 1c15.3 2.2 19.6 2.8 35.6 5.8l0.5-1.3c-2.9-12.1-5.8-24.1-8.6-36.3-5.9-25.4-8.1-38.3-10.3-51.6l-1.4-1.1c-15.4 0.1-19.9 0.1-34.2-0.5l-0.9 1.1c0.5 1.8 0.9 3.6 1.4 5.4-5.2-4.4-10.8-7.4-16.9-7.7-6.1-0.3-12.2 0.8-17.8 3.2-19.9 7.7-16.7 29.4-13.9 41.3 2.7 11.8 7.3 24 17.1 33 13.7 12.5 29.7 16 36.6 13.3z m-175.9-90.8l24.8 102.3c0 0.1 9.8 46 9.8 46s0.7 3.6 1.2 5.6c4.5-0.5 15.6-0.7 43.3-0.4l10.6 0.2c21.7-0.2 40.3-0.3 49.8-13.5 3.7-4.9 5-11.2 5-17.6 0-4.9-0.7-9.8-1.7-13.9-3.8-16.6-12.5-30.4-25-39.7-18.4-13.6-42-13.6-62.8-13.6h-2.2c-1.6-0.8-3-2.9-3-2.9-0.3-0.7-5.1-20.8-5.1-20.8-0.1 0-5.7-27.3-6.6-31.8-4 0.4-14 0.4-38.1 0.1z m9.1-117.5c-1.1-3.9-2.1-6.9-5-9.4-3.1-2.6-6.8-5.4-15.3-5.4l-15.7-0.6-0.1-14.2c-0.2-4 0.9-3.6 1.5-4.3 0.6-0.6 1.3-1 2.1-1.2l5 0.2 15 0.9-6.2-20.6h-17.3c-12.1 0-21 0.3-24 2.6-2.9 1.8-3.3 4.2-3.2 8.1l1.1 55.1h27.5l-0.4-11.3h6.6c2.2 0 3.8 0.2 4.7 0.8 0.8 0.7 1.4 1.5 1.9 2.9l2.7 8.8h21.6l-2.5-12.4z m96.4-54.8h-29.5l2 6.6h-60l6 19.6h6.1l31.5 104.2 6.3 21h30.1l-3.1-10.6s8 5.8 15.6 7.7c6.3 1.7 37.3 2.5 47.8 2.7h32.2l0.4-12c-0.2-2 1.5-2.9 5.3-2.9h6.5l-6-19.8h-17.3c-15-1.1-20.7 5.4-20.4 12.6l-0.3 11.7-3.2-10.5H760.84552l-31-102.7h8.3l-6.4-21.2h-8.3l-2.3-6.4z m133.1 91.2h-32.3l-5-16.1h32.4l-5.3-17.6h-35l-6.2-7.4h14.2l3.4-22.2c0.4-2.2 0.4-3.6 1.1-4.6 0.7-0.8 5-1.2 7.4-1.2h4.3l-6.5-21.6H815.84552c-1.7 0-4.2 0.1-7.6 0.3-3.3 0.3-5.6 2.2-7.8 3.2-2 1-5 3.4-5.7 7.6l-3.4 22.1-15.9-21.8c-5-6.9-11.9-12.2-23.4-12.2h-22.3l5.8 19.3h8.5c2.5 0 4.7 1 6.2 1.8 1.6 0.7 3.1 1.5 4.7 3.9l23.2 32.7h-30.6l5.2 17.6h35l5 16.1h-34.5l5.9 19.9h96.2l-6.1-19.8z m20.4 61.2l-1.4-1.5h0.2l-12.5-21.3c-3.9-7.3-11.2-12.7-22.8-12.8l-19.8 0.3 5.8 19.2h3.8c2 0 3.5 0.1 4.7 0.7 1 0.3 1.7 1.1 2.5 2.2l7 11.1v0.1c9.8 15 12.3 21.4 22.6 38.5-1.8 19-2.7 25.2-4.2 37.7-0.8 7.4-2 15.1-2.9 22.6-1.9 15.4-1.4 13.2-3.4 23l-0.1 0.2c0.1 0.6 0.1 1.1 0.2 1.7l1.2 1c15.3 1.9 15.7 2.5 32.2 5.6l1.4-1.4 2.2-42.6c0-0.8 0.1-1.6 0.1-2.4 8.8 19.6 8.5 14.3 19.3 39.2l0.1-0.2c0 0.2 0.1 0.5 0.1 0.7l1.1 1c14.5 1.9 17.4 2.5 33.1 5.6l1.2-1.4c0.2 0.3-63.4-108.8-71.7-126.8z m0 0M609.04552 333.2l3.3 11.1h-43.7l-4.3-18.6c5.9 3.5 12.3 5.9 19.1 7.1 3.5 0.6 25.6 0.4 25.6 0.4z m90.7 136.6c8.5 4.2 15.1 12.8 17.4 22.9 2.5 11.2-1.1 19.8-9.6 23.1l-22.3 1.9-4.2 0.4-0.2-1.8-0.2-2.3c0 0.1-10.5-45.7-10.5-45.7l-0.4-2.3h5.7c8.7 0 17.3 0.2 24.3 3.8zM674.14552 242h24l6.9 23.1h-24l-6.9-23.1z m31.1 102.9l-8-26.2s8.9 4 13.8 5.4c4.9 1.3 12.3 1.8 12.3 1.8l5.8 19.1h-23.9z m-20.2-66.5s9.2 4.7 14 6.1c4.9 1.1 12.4 2 12.4 2l5.9 19.1h-24l-8.3-27.2z m0 0"  horiz-adv-x="1024" />

    
    <glyph glyph-name="zhifubao-caise" unicode="&#58953;" d="M927.8 107.2v-4.9c0-73.2-59.8-133.1-132.8-133.1H230.8c-73 0-132.8 59.9-132.8 133.1V666.1c0 73.2 59.8 133.1 132.8 133.1h564.4c73 0 132.8-59.9 132.8-133.1v-429.2l-0.2-129.7zM322 160.5c-129.5 0-167.7 101.5-103 158 21.6 18.3 59.8 28.3 81.4 30 76.3 8.4 147.7-21.6 232.3-63.2-61.2-76.7-136-124.8-210.7-124.8z m459.8 118c-33.2 11.6-77.9 28.3-127.9 46.5 29.8 51.6 53.1 111.5 69.8 174.7H559.4V558h200.7v33.2H559.3v98.1h-81.4c-14.9 0-14.9-14.9-14.9-14.9v-84.8H260.6v-33.2h202.5v-56.5H295.5v-33.2h325.3c-11.6-41.6-28.2-79.9-46.5-114.8-104.6 34.9-217.4 63.2-288.8 44.9-44.9-11.6-74.7-31.6-91.4-51.6-77.9-94.8-21.6-239.6 142.8-239.6 97.9 0 192.6 54.9 265.6 144.7C712 197.1 927.8 107.2 927.8 107.2v128c0 0.1-26.5 3.4-146 43.3z m0 0"  horiz-adv-x="1024" />

    
    <glyph glyph-name="zhifubao-huisese" unicode="&#58954;" d="M926.8 107.2v-4.9c0-73.2-59.8-133.1-132.8-133.1H229.8c-73 0-132.8 59.9-132.8 133.1V666.1c0 73.2 59.8 133.1 132.8 133.1h564.4c73 0 132.8-59.9 132.8-133.1v-429.2l-0.2-129.7zM321 160.5c-129.5 0-167.7 101.5-103 158 21.6 18.3 59.8 28.3 81.4 30 76.3 8.4 147.7-21.6 232.3-63.2-61.2-76.7-136-124.8-210.7-124.8z m459.8 118c-33.2 11.6-77.9 28.3-127.9 46.5 29.8 51.6 53.1 111.5 69.8 174.7H558.4V558h200.7v33.2H558.3v98.1h-81.4c-14.9 0-14.9-14.9-14.9-14.9v-84.8H259.6v-33.2h202.5v-56.5H294.5v-33.2h325.3c-11.6-41.6-28.2-79.9-46.5-114.8-104.6 34.9-217.4 63.2-288.8 44.9-44.9-11.6-74.7-31.6-91.4-51.6-77.9-94.8-21.6-239.6 142.8-239.6 97.9 0 192.6 54.9 265.6 144.7C711 197.1 926.8 107.2 926.8 107.2v128c0 0.1-26.5 3.4-146 43.3z m0 0"  horiz-adv-x="1024" />

    
    <glyph glyph-name="zhuye" unicode="&#58955;" d="M864 308.7c0 17.2-14 31.3-31.3 31.3-17.2 0-31.3-14-31.3-31.3l-0.1-253.1c0-2 0.2-4 0.6-6 0.4-2.4 0.4-10.1-2.1-13.1-1.5-1.8-6.2-3.7-15.3-3.7H610.3l-1 178c1.1 9.7 2.7 40.8-16.3 63.1-8.4 9.9-24 21.7-50.2 21.7h-67.2c-26.2 0-41.7-11.8-50.2-21.7-19-22.3-17.4-53.4-16.3-63.1l-1-178H233.9c-9 0-13.8 1.9-15.3 3.6-2.2 2.7-2.7 9.5-2.1 13.3 0.4 2.2 0.5 3.8 0.5 5.8V308.7c0 17.2-14 31.3-31.3 31.3-17.2 0-31.3-14-31.3-31.3l0.1-250.7c-1.5-11.3-2.7-38.7 15.8-61.1 9.9-12.1 29-26.4 63.6-26.4h205.3c17.1 0 31.2 13.9 31.3 31.1l1.2 211.2c0 1.6-0.1 3.1-0.4 4.9-0.7 5.5 0.1 12.9 1.4 15.3 0.5 0.1 1.4 0.2 2.9 0.2h67.2c1.5 0 2.5-0.1 2.9-0.2 1.3-2.4 2.1-9.8 1.4-15.3-0.3-1.9-0.4-3.4-0.4-5l1.2-211.1c0.1-17.1 14.1-31.1 31.3-31.1h205.3c34.6 0 53.6 14.4 63.6 26.4 18.5 22.4 17.3 49.9 15.8 61.1l0.1 250.7zM967.2 366.8L614 746.4c-7 8-43.4 46.9-97.9 48.7-39.5 1.3-77.1-16.6-111.8-53.4-50.4-53.3-164-173.7-337.7-357.8-9.9-10.4-15.6-16.6-16-17-11.8-12.5-11.3-32.4 1.3-44.2 5.8-5.5 13.4-8.5 21.4-8.5h0.9c8.3 0.2 16.1 3.7 21.8 9.8 0.4 0.4 6.7 7.1 17.4 18.4C286.7 526 399.8 645.9 449.8 698.8c21.7 23 43.2 34.4 63.9 33.8 29.5-0.8 51.4-25.3 53-27.1 0.4-0.5 0.6-0.7 1-1.2l353.8-380.2c5.9-6.3 14.2-10 22.9-10h0.1c7.9 0 15.5 3 21.3 8.4 12.4 11.9 13.1 31.7 1.4 44.3z"  horiz-adv-x="1024" />

    
    <glyph glyph-name="wode-yuanquan" unicode="&#58956;" d="M513 830.3c-246.7 0-446.8-200-446.8-446.8 0-246.7 200-446.8 446.8-446.8s446.8 200 446.8 446.8c0 246.7-200 446.8-446.8 446.8z m0-853.1c-224.4 0-406.3 181.9-406.3 406.3S288.6 789.8 513 789.8s406.3-181.9 406.3-406.3S737.4-22.8 513-22.8z m0 0M778.2 51.9c-0.1 0.9-0.2 1.7-0.3 2.6 0 1.9-0.2 3.7-0.6 5.5-12.4 97.4-76 178.8-163.1 216.2 50.3 34.5 83.3 92.3 83.3 157.9 0 105.6-85.6 191.3-191.2 191.3S315 539.8 315 434.1c0-65.6 33-123.5 83.4-157.9C312.2 239.1 249 159 235.7 63c-1-2.8-1.5-5.8-1.5-8.9l0.2-2.1v-0.4c0-15.1 12.2-27.3 27.3-27.3 15.1 0 27.3 12.2 27.3 27.3v0.3h0.5c12.7 104.1 98.7 185.6 204.9 191.3 3.9-0.2 7.9-0.4 11.9-0.4s8 0.1 11.9 0.4c106.2-5.7 192.2-87.2 204.9-191.3h0.5v-0.3c0-15.1 12.2-27.3 27.3-27.3 15.1 0 27.3 12.2 27.3 27.3v0.3z m-272 245.5c-75.4 0-136.6 61.2-136.6 136.6s61.2 136.6 136.6 136.6c75.4 0 136.6-61.2 136.6-136.6s-61.2-136.6-136.6-136.6z m0 0"  horiz-adv-x="1024" />

    
    <glyph glyph-name="yinlian-caise" unicode="&#58957;" d="M238.9 130.6l75 322.1c-0.7 0.2-1.4 0.3-2.2 0.3-3.1 0-6.3-1.5-9.6-3-1.8-6.5-5.4-24.5-7.2-32.8-3.7-17.4-3.9-19.3-5.6-28l-1.1-1.1c-13.2 0.2-17.8 0.2-32.9-0.5l-0.7 1.2c2.6 10.3 5.1 20.7 7.5 31.1 6.4 28 7.9 38.7 9.7 53l1.2 0.9c14.8 2 18.4 2.5 34.4 5.8l1.3-1.5-2.4-8.9c2.7 1.6 5.3 3.3 8.1 4.7 1.6 0.8 3.2 1.4 4.9 2l38.1 163.7c8.4 35.7 43.9 64.6 79.4 64.6H203.4c-35.6 0-71.2-29-79.4-64.6L5.5 130.6c-8.3-35.6 13.8-64.5 49.3-64.5h233.3c-35.6 0-57.6 28.9-49.2 64.5z m-23.3 267.6c-11.4-6.9-28.2-10.7-46.1-10.7-13.9 0-38.5 2.2-47.1 17.3-2.7 4.8-4 10.4-4 17.3l3.1 23.2 1.6 7.1 18.9 83.7s1 4.6 1.2 5.4c0.4-0.6 6.8-0.9 42.9-0.6-0.1-0.3-0.2-0.5-0.3-1.1-3.3-9.8-21.9-84.1-21.9-84.1 0-0.1-3.6-22.2-3.6-22.2l0.2-3.7c1.2-10.9 8-16.7 19.5-16.7 7.2 0 13.4 2.1 18.8 6.5 9.4 7.6 12.1 19.4 15.9 35.8 0.1 0.1 17.7 81.5 18.7 86 2.5-0.6 10.2-0.8 36.3-0.6-0.1-0.3-0.2-0.7-0.3-1.1-3.3-10-22.4-87.2-22.4-87.2l-2.1-8.3c-4.4-16.1-9.6-34.3-29.3-46z m0 0M519.9 130.6l19.7 84.5h-8.4c-6.9 0-12 0.1-15.5 0.4-3.4 0.2-6.9 0-9.2 1.8-2 1.8-5.2 4.1-5.1 6.6 0.2 2.2 1.1 6 2.6 11l39.7 131.7H572l-4.1-14.2s1.8 1.5 4.4 3.3l7.6 32.5c-5.1 0-10.1-0.2-18.5-0.6l-0.6 1.1c1.3 5.7 2.7 11.3 4.1 17.1l1.8 7.8c2.8 12.1 5.5 26.2 5.8 30.5 0.3 2.6 1.1 9-6.2 9-3.2 0-6.4-1.5-9.7-3-1.8-6.5-5.5-24.5-7.2-32.8-3.6-17.4-3.9-19.3-5.5-28l-1.1-1.1c-13.2 0.2-17.7 0.2-32.9-0.5l-0.7 1.2c2.5 10.3 5 20.7 7.5 31.1 6.4 28 7.8 38.7 9.6 53l1.2 0.9c14.8 2 18.4 2.5 34.4 5.8l1.3-1.5-2.3-8.9c2.6 1.6 5.3 3.2 8.1 4.7 7.5 3.7 16 4.8 20.5 4.8 3.8 0 7.7-0.6 11.1-2.4l38 163.3c8.3 35.6 43.9 64.6 79.5 64.6H436.7c-35.5 0-71-29-79.4-64.6L319.2 476c6.1 2.1 12 2.8 15.7 2.8 7 0 14.7-2 17.9-10.1 3.1-7.2 1.1-16.2-3-33.7l-2.1-8.9c-4.1-19.5-4.8-23.1-7.1-36.5l-1.5-1.1c-12.8 0.2-17.3 0.2-32.3-0.5l-0.6 1.1c1.3 5.7 2.7 11.3 4 17.1l1.8 7.8c2.8 12.1 5.5 26.2 5.8 30.5 0.2 2.3 0.9 7.6-4.1 8.8l-75-322.1c-8.4-35.6 13.7-64.5 49.3-64.5h281.1c-35.5-0.6-57.6 28.3-49.2 63.9z m9.5 225.2l-6.1-20.2h-45.4l-4.9-4.3c-2.1-2-2.8-1.2-5.6-2.7-2.6-1.3-8-3.8-15-3.8h-14.6l5.9 19.4h4.4c3.7 0 6.2 0.3 7.5 1.1 1.4 0.9 3.1 3 4.9 6.3l8.4 15.2H502l-5.8-11.1 33.2 0.1zM410.1 462.7c-1.3-4.8-5.4-20.7-6.6-25.5-1.4-5.8-2.9-11.5-4.3-17.2-2.9-12.2-4-16.7-4.7-19.9-0.7-3.1-0.8-4.8-2-11.1l-0.7-0.6-0.7-0.5c-7.7 0-12.7 0.2-17.5 0-4.8 0-9.5-0.3-16.7-0.5l-0.4 0.5-0.5 0.6c1.9 7 3 9.4 4 11.9s1.9 5 3.6 12.1c2.2 9.2 3.6 15.7 4.6 21.3 1 5.2 4.4 20.7 5.1 25.7-0.7 3.7 1.5 8 6.6 11.5 8 5.6 20 6.8 26.8 2.8 4.5-2.6 5.5-6.9 3.4-11.1z m6.4-30.1c2.8 11.8 7.3 24.2 17.1 33.2 13.7 12.6 31.2 13.4 38.5 13.4 12.2 0 24-2.8 30.7-11.3 4.4-5.6 7.8-14.8 3.3-34.5-1.3-5.9-5.3-20.3-14-30-11.2-12-26.2-16-40.8-16-5.7 0-14.5 0.7-20.8 3.3-20 8.2-16.7 29.9-14 41.9z m69.6-217.5h-37.4c-3 0-5.3 0.4-8.5 1.1-3.2 0.8-4.5 2.2-6 4.4-1.4 2.2-3.4 4-2 8.6l10.7 35.6h-18.4l6.1 20.3h18.5l4.9 16.5h-18.4l5.9 19.4h81.1l-6-19.4h-32.5l-5-16.5h33.2l-6-20h-33.2l-8-26.8c-1-3 7.9-3.4 11-3.4l16.6 2.3-6.6-22.1z m0 0M566.7 345l-6.8-22.5s2 1.8 5.5 3.9l4.3 18.6h-3z m-111.2 62.8c3.6 0 6.9 2.3 9.6 6.2 4 5.3 6.8 17.6 7.5 20.9 3.5 15 3 24.2-5 24.2-10.1 0-14.1-12.5-17.5-27.4-1.2-5.1-2.1-9.9-2-14.6 0.1-9.3 6.4-9.3 7.4-9.3z m81.4-162.7c-1.2-4.1-1.8-6-1-7.1 0.7-1 2.1-2.1 4.2-2.1l4.3 0.4 11.6 50h-6.7l-12.4-41.2z m20.5 68.9l-2.9-9.4h5.9l2.2 9.4h-5.2z m0 0M775.8 407.5c3.6 0 9.8 2.3 12.4 6 1.4 1.8 2.7 4.6 3.7 7.5 1.1 4.4 2.2 8.7 3.2 13.1 0.7 3 1.3 5.7 1.8 8.2 0.7 10.2-2.7 16.1-9.1 16.1-10.2 0-14.1-12.4-17.5-27-1.2-5.2-2.1-10-2.1-14.6 0.3-9.3 6.6-9.3 7.6-9.3zM600.9 304.8l3 9.2h-41.3l-2.2-9.4h34.3c4.8 0.6 5.8-0.1 6.2 0.2z m0 0M972.3 703.9H717.8c-35.6 0-71.2-29-79.5-64.6l-38-163.3c2.9-1.5 5.4-3.9 6.9-7.7 3-7.2 1-16.2-3.1-33.7l-2-8.9c-4.2-19.5-4.8-23.1-7-36.5l-1.6-1.1c-4.6 0.1-9.1 0.1-13.7 0.1l-7.6-32.5c3.1 2.2 7.4 5 10.8 6.4 6.2 2.4 20.4 4.5 20.4 4.5l45.8 0.2-15.6-52c-2.6-8.9-5.7-14.7-7.6-17.3-1.7-2.7-3.8-4.9-7.8-7.2-3.9-2-7.4-3.2-10.6-3.6-3.1-0.2-7.7-0.4-14.1-0.4h-37.4l-11.6-50 15.2 1.4-6.6-22.6h-13.5l-19.7-84.5c-8.4-35.6 13.7-64.5 49.3-64.5h254.4c35.7 0 71.2 28.9 79.5 64.5l118.5 508.7c8.3 35.6-13.8 64.6-49.3 64.6zM790.5 478.4c5.4-2.1 8.8-5.3 11.2-9.2 0.2 1.2 0.3 2.4 0.5 3.6l1.1 1c15.3 2.2 19.6 2.8 35.6 5.8l0.5-1.3c-2.9-12.1-5.8-24.1-8.6-36.3-5.9-25.4-8.1-38.3-10.3-51.6l-1.4-1.1c-15.4 0.1-19.9 0.1-34.2-0.5l-0.9 1.1c0.5 1.8 0.9 3.6 1.4 5.4-5.2-4.4-10.8-7.4-16.9-7.7-6.1-0.3-12.2 0.8-17.8 3.2-19.9 7.7-16.7 29.4-13.9 41.3 2.7 11.8 7.3 24 17.1 33 13.7 12.5 29.7 16 36.6 13.3z m-175.9-90.8l24.8 102.3c0 0.1 9.8 46 9.8 46s0.7 3.6 1.2 5.6c4.5-0.5 15.6-0.7 43.3-0.4l10.6 0.2c21.7-0.2 40.3-0.3 49.8-13.5 3.7-4.9 5-11.2 5-17.6 0-4.9-0.7-9.8-1.7-13.9-3.8-16.6-12.5-30.4-25-39.7-18.4-13.6-42-13.6-62.8-13.6h-2.2c-1.6-0.8-3-2.9-3-2.9-0.3-0.7-5.1-20.8-5.1-20.8-0.1 0-5.7-27.3-6.6-31.8-4 0.4-13.9 0.4-38.1 0.1z m9.1-117.5c-1.1-3.9-2.1-6.9-5-9.4-3.1-2.6-6.8-5.4-15.3-5.4l-15.7-0.6-0.1-14.2c-0.2-4 0.9-3.6 1.5-4.3 0.6-0.6 1.3-1 2.1-1.2l5 0.2 15 0.9-6.2-20.6h-17.3c-12.1 0-21 0.3-24 2.6-2.9 1.8-3.3 4.2-3.2 8.1l1.1 55.1h27.5l-0.4-11.3h6.6c2.2 0 3.8 0.2 4.7 0.8 0.8 0.7 1.4 1.5 1.9 2.9l2.7 8.8h21.6l-2.5-12.4z m96.4-54.8h-29.5l2 6.6h-60l6 19.6h6.1l31.5 104.2 6.3 21h30.1l-3.1-10.6s8 5.8 15.6 7.7c6.3 1.7 37.3 2.5 47.7 2.7H805l0.4-12c-0.2-2 1.5-2.9 5.3-2.9h6.5l-6-19.8h-17.3c-15-1.1-20.7 5.4-20.4 12.6l-0.3 11.7-3.2-10.5h-10.3l-31-102.7h8.3l-6.4-21.2H722l-1.9-6.4z m133.1 91.2h-32.3l-5-16.1h32.3l-5.3-17.6h-35l-6.2-7.4h14.2l3.4-22.2c0.4-2.2 0.4-3.6 1.1-4.6 0.7-0.8 5-1.2 7.4-1.2h4.3l-6.5-21.6h-10.9c-1.7 0-4.2 0.1-7.6 0.3-3.3 0.3-5.6 2.2-7.8 3.2-2 1-5 3.4-5.7 7.6l-3.4 22.1-15.9-21.8c-5-6.9-11.9-12.2-23.4-12.2h-22.3l5.8 19.3h8.5c2.5 0 4.7 1 6.2 1.8 1.6 0.7 3.1 1.5 4.7 3.9l23.2 32.7h-30.6l5.2 17.6h35l5 16.1h-34.5l5.9 19.9h96.2l-6-19.8z m20.4 61.1l-1.4-1.5h0.2L860 344.8c-3.9-7.3-11.2-12.7-22.8-12.8l-19.8 0.3 5.8 19.2h3.8c2 0 3.5 0.1 4.7 0.7 1 0.3 1.7 1.1 2.5 2.2l7 11.1v0.1c9.8 15 12.3 21.4 22.6 38.5-1.8 19-2.7 25.2-4.2 37.7-0.8 7.4-2 15.1-2.9 22.6-1.9 15.4-1.4 13.2-3.4 23l-0.1 0.2c0.1 0.6 0.1 1.1 0.2 1.7l1.2 1c15.3 1.9 15.7 2.5 32.2 5.6l1.4-1.4 2.2-42.6c0-0.8 0.1-1.6 0.1-2.4 8.8 19.6 8.5 14.3 19.3 39.2l0.1-0.2c0 0.2 0.1 0.5 0.1 0.7l1.1 1c14.5 1.9 17.4 2.5 33.1 5.6l1.2-1.4c0.1 0.4-63.5-108.8-71.8-126.8z m0 0M610.2 333.9l3.3 11.1h-43.7l-4.3-18.6c5.9 3.5 12.3 5.9 19.1 7.1 3.5 0.7 25.6 0.4 25.6 0.4z m90.7 136.6c8.5 4.2 15.1 12.8 17.4 22.9 2.5 11.2-1.1 19.8-9.6 23.1l-22.3 1.9-4.2 0.4-0.2-1.8-0.2-2.3c0 0.1-10.5-45.7-10.5-45.7l-0.4-2.3h5.7c8.7 0 17.3 0.3 24.3 3.8z m-25.6-227.7h24l6.9 23.1h-24l-6.9-23.1z m31.1 102.9l-8-26.2s8.9 4 13.8 5.4c4.9 1.3 12.3 1.8 12.3 1.8l5.8 19.1h-23.9z m-20.2-66.5s9.2 4.7 14 6.1c4.9 1.1 12.4 2 12.4 2l5.9 19.1h-24l-8.3-27.2z m0 0"  horiz-adv-x="1024" />

    
    <glyph glyph-name="sousuo" unicode="&#58958;" d="M769.5 198.8c39.4 79 50.7 170.3 32 257.8-11.1 51.8-31.8 99.9-61.6 142.7-28.8 41.4-64.7 76.1-106.7 103.1-82.1 52.8-179 70.5-273 49.9-48.8-10.7-93.9-31-134.3-60.4-39-28.4-71.8-63.9-97.6-105.6-53-85.8-70.4-188.2-49-288.3 11.2-52 31.9-100 61.7-142.9 28.8-41.4 64.7-76.1 106.7-103.1 59.7-38.4 127.3-58.3 195.9-58.3 25.7 0 51.5 2.8 77.1 8.4 42 9.2 81.6 25.7 117.7 49.1 33.4 21.6 63.1 48.6 88.2 80.2l197-132 41.9 67.9-196 131.5zM374.2 686.9c77.4 17 157.3 2.4 225-41.2 71.4-46 120.8-118.1 138.9-203 36.5-170.8-67.3-339.2-231.5-375.3-77.4-17-157.3-2.4-225 41.2-71.4 46-120.8 118.1-139 203-36.5 170.8 67.4 339.2 231.6 375.3z"  horiz-adv-x="1024" />

    
    <glyph glyph-name="weixinzhifu" unicode="&#58959;" d="M735.4 806.2H288.6C178.9 806.2 90 717.3 90 607.6v-446.8c0-109.7 88.9-198.6 198.6-198.6h446.8c109.7 0 198.6 88.9 198.6 198.6V607.6c0 109.7-88.9 198.6-198.6 198.6zM512 159.1c-31.5 0-61.8 4.4-90.1 12.4-8.4-1.5-16.6-4-24.4-7.3l-55.3-34.7c-16.4-11-21.7-6.8-16 12.4l12.3 43.4c0.8 8.6 0.1 17.2-2.2 25.5-66.8 44.5-109.8 113.7-109.8 191.2 0 133.8 128.2 242.9 285.5 242.9 95.9 0 181-40.6 232.8-102.6L478.7 415.9c-18.3-11-36.7-13.4-55 3.5l-42.4 38.2c-19.4 5.8-26.3-0.4-20.6-18.5l45.9-112.2c10.3-16.8 25.5-22.5 51.6-3.5l308.7 188c19.6-32.9 30.7-70 30.7-109.3-0.1-133.9-128.4-243-285.6-243z m0 0"  horiz-adv-x="1024" />

    
    <glyph glyph-name="weibo" unicode="&#58960;" d="M455.8 410.3c-84.9-4.1-153.5-49.8-153.5-106.9 0-57.1 68.6-100.4 153.5-96.3 84.9 4.1 153.5 58 153.5 115.1-0.8 56.3-69.4 92.2-153.5 88.1zM513 265.8c-26.1-34.3-77.6-50.6-127.4-22.9-23.7 13.1-22.9 38.4-22.9 38.4s-9.8 80.8 75.1 90.6c85.8 10.7 101.3-71.8 75.2-106.1z m0 0M455.8 320.5c-5.7-4.1-6.5-11.4-3.3-16.3 2.5-4.9 9.8-5.7 14.7-1.6 4.9 4.1 7.3 11.4 4.1 16.3-2.4 4.9-8.9 5.7-15.5 1.6z m-40-11.4c-16.3-1.6-26.9-15.5-26.9-29.4 0-13.1 13.1-22.9 28.6-21.2 15.5 1.6 28.6 13.9 28.6 27.8-0.1 13.8-12.3 24.4-30.3 22.8z m0 0M511.3 833.2c-248.2 0-449-200.8-449-449s200.8-449 449-449 449 200.8 449 449c0.1 248.2-200.8 449-449 449z m173.1-549.4C649.3 208.7 534.2 172 449.3 178.5c-80.8 6.5-185.3 33.4-195.9 133 0 0-5.7 44.9 37.6 102.9 0 0 62 87.4 133.9 112.7 72.7 24.5 80.8-17.1 80.8-42.5-4.1-21.2-10.6-33.5 16.3-25.3 0 0 71 33.5 100.4 4.1 23.7-23.7 4.1-57.1 4.1-57.1s-9.8-10.6 10.6-14.7c18.7-3.3 82.4-32.7 47.3-107.8z m-70.2 207.4c-7.3 0-13.9 6.5-13.9 13.9 0 8.2 6.5 13.9 13.9 13.9 0 0 87.4 16.3 76.7-78.4v-1.6c-0.8-6.5-6.5-12.2-13.9-12.2-8.2 0-13.9 6.5-13.9 13.9 0.1 1.5 14 64.3-48.9 50.5zM762 400.5c-2.4-16.3-10.6-9.8-19.6-9.8-11.4 0-20.4 14.7-20.4 26.1 0 9.8 4.1 19.6 4.1 19.6 0.8 4.1 10.6 30.2-6.5 68.6-31 53.1-93.1 53.1-100.4 50.6-7.3-3.3-18.8-4.9-18.8-4.9-11.4 0-20.4 9-20.4 20.4 0 9.8 6.5 17.1 14.7 19.6 0 0 0-0.8 0.8-0.8s1.6-0.8 1.6-0.8c9 1.6 40 4.1 69.4-3.3 54.7-13 128.1-73.4 95.5-185.3z m0 0"  horiz-adv-x="1024" />

    
    <glyph glyph-name="tuandui" unicode="&#58961;" d="M956 78.8c-28.5 102.6-110 182.7-207 222.7 62.8 39.9 108.4 114.1 108.4 193.9 0 114.1-79.8 205.3-188.2 222.4 0 0-5.4 1.3-17.4 1.3-14 0-28.2-12.7-28.2-29.8s11.4-28.5 28.5-28.5c79.8-5.7 148.2-79.8 148.2-165.3 0-51.3-28.5-91.2-57-125.5-28.4-34.2-96.8-79.8-96.8-79.8s68.4-34.2 96.9-45.6c74.1-34.2 131.2-96.9 159.6-176.7 5.7-17.1 17.1-28.5 28.5-28.5 17.1 0 29.5 10.5 27.5 25.5l-3 13.9z m0 0M515.3 301.5c62.7 40 108.3 114.1 108.3 199.6 0 62.7-22.8 119.8-62.7 159.6 0 0-22.8 22.8-51.3 40-34.2 17.1-74.1 28.5-114.1 28.5-125.5 0-228-102.6-228-228 0-79.8 45.6-153.9 108.3-193.9C179 267.2 99.2 187.4 70.6 84.8c-1.2-4.5-3.7-15.5-3.7-15.5-2.1-15 9.4-24.3 26.5-24.3s22.8 11.4 28.5 28.5c40 114.1 148.2 199.6 279.4 199.6S635 187.6 680.7 73.5c5.7-17.1 17.1-28.5 28.5-28.5 17.1 0 29.5 9.9 27.4 26.8 0 0-0.5 3.5-4.6 13-39.9 96.9-119.7 182.4-216.7 216.7zM218.8 501.1c0 96.9 74.1 171 171 171 45.6 0 85.5-17.1 114.1-45.6 40-28.5 62.7-74.1 62.7-125.5 0-96.9-74.1-171-171-171-97 0-176.8 68.4-176.8 171.1z m0 0"  horiz-adv-x="1024" />

    
    <glyph glyph-name="shoucang" unicode="&#58963;" d="M958.7 488.8c-5.5 17-19.9 29.1-37.6 31.6l-253.2 36.8-113.2 229.5c-7.9 16-23.9 25.9-41.7 25.9s-33.8-9.9-41.7-25.9L358.1 557.2l-253.2-36.8c-17.4-2.5-32.2-14.9-37.6-31.6-5.5-17-1-35.2 11.8-47.7l183.2-178.6-43.2-252.2c-2.3-13.5 1.5-27.3 10.3-37.8 8.8-10.5 21.7-16.6 35.4-16.7h0.2c7.4 0.1 14.8 1.9 21.5 5.3l226.5 119 226.5-119c6.9-3.6 14.3-5.4 21.6-5.4 9.6 0 19.2 3 27.3 9 14.4 10.5 21.5 27.9 18.5 45.5l-43.2 252.3 183.2 178.6c12.8 12.5 17.3 30.7 11.8 47.7zM335.5 268.9c2 11.5-1.9 23.3-10.2 31.5L164.5 457.1l222.2 32.3c11.6 1.7 21.7 8.9 26.9 19.5L513 710.3l99.4-201.4c5.2-10.5 15.3-17.8 26.9-19.5l222.2-32.3-160.9-156.7c-8.4-8.2-12.3-20-10.3-31.5l38-221.2-198.6 104.4c-5.1 2.7-10.9 4.2-16.6 4.2H512.8c-5.7-0.1-11.4-1.5-16.4-4L297.5 47.7l38 221.2z"  horiz-adv-x="1024" />

    
    <glyph glyph-name="shezhi" unicode="&#58964;" d="M958.8 477.1c-5.4 30-23.1 49.1-45 48.7H910c-61.3 0-111.1 52.2-111.1 116.4 0 20 8.7 42 9.7 44.5 11 26 2.5 57.8-19.9 74.1l-1.4 1-112.9 65.5-1.7 0.8c-7.4 3.4-15.6 5.1-24.2 5.1-17.7 0-35.1-7.4-46.5-19.8-12.4-13.3-55-51.4-87.7-51.4-33 0-75.9 38.8-88.3 52.4-11.5 12.6-29 20.2-46.8 20.2-8.5 0-16.5-1.7-23.8-4.9l-1.5-0.7L237 761.9l-1.7-1.2c-22.4-16.3-31-48.1-20-74 0.1-0.2 9.7-23.6 9.7-44.5 0-64.2-49.8-116.4-111.1-116.4h-3.8c-21.9 0.5-39.6-18.6-45.1-48.7-0.4-2.1-9.5-52.8-9.5-93.3 0-40.3 9.1-91.2 9.5-93.3 5.4-29.6 22.7-48.7 44.3-48.7h4.6c61.3 0 111.1-52.2 111.1-116.4 0-20.9-9.6-44.3-9.7-44.5-11-25.9-2.5-57.8 19.8-74.1l1.3-1 110.7-64.7 1.7-0.8c7.5-3.4 15.6-5.2 24.2-5.2 17.9 0 35.4 7.7 46.8 20.7 15.7 17.8 58.3 54.7 89.6 54.7 33.9 0 77.6-41.3 90.2-55.7 11.4-13.2 29-21 47.1-21 8.4 0 16.4 1.7 23.8 5l1.5 0.7 115 66.2 1.7 1.2c22.4 16.3 30.9 48.1 19.9 74-0.1 0.2-9.7 23.7-9.7 44.5 0 64.2 49.8 116.4 111.1 116.4h4.5c21.6 0 39 19 44.3 48.6 0.1 0.5 9.5 52 9.5 93.3 0.1 41.4-9.4 93-9.5 93.4z m-55.5-93.3c0-26.8-5.2-61.4-7.4-75.1-43.2-3.6-83.4-23.6-113.6-56.6-31.3-34.3-48.5-79.3-48.5-126.6 0-27.6 8.7-54.3 12.9-65.8l-100.2-57.9c-4.7 5.2-19.3 20.7-39.1 36-34.4 26.7-67.3 40.2-97.8 40.2-30.3 0-63-13.3-97.1-39.4-19.6-15-34.1-30.2-38.9-35.3l-96.4 56.3c4.3 11.5 13 38.2 13 65.9 0 47.3-17.2 92.3-48.5 126.6-30.1 33.1-70.3 53.1-113.5 56.6-2.1 13-7.4 48.2-7.4 75.1 0 26.8 5.2 61.4 7.4 75.1 43.2 3.6 83.4 23.6 113.6 56.6 31.3 34.3 48.5 79.3 48.5 126.6 0 27.5-8.6 54.2-12.9 65.8L380 766.8c4.2-4.5 18.7-19.4 38.9-34.4 33.7-25.1 65.8-37.8 95.5-37.8 29.4 0 61.2 12.5 94.7 37.1 20 14.7 34.5 29.4 38.7 33.8l98.9-57.4c-4.3-11.5-13-38.3-13-65.9 0-47.3 17.2-92.3 48.5-126.6 30.1-33.1 70.3-53.1 113.6-56.6 2.3-13.7 7.5-48.3 7.5-75.2zM510 553.4c-89.3 0-162-75.8-162-169s72.7-169 162-169 162 75.8 162 169-72.7 169-162 169z m96.9-169c0-56-43.5-101.5-96.9-101.5-53.4 0-96.9 45.6-96.9 101.5 0 56 43.5 101.5 96.9 101.5 25.8 0 50.1-10.5 68.4-29.7 18.4-19.1 28.5-44.6 28.5-71.8z"  horiz-adv-x="1024" />

    
    <glyph glyph-name="shaidan" unicode="&#58965;" d="M512.2 518.1c-50.3 0-97.5-19.5-133-55-35.4-35.4-55-82.7-55-133s19.5-97.5 55-133c35.4-35.4 82.7-55 133-55s97.5 19.5 133 55c35.4 35.4 55 82.7 55 133 0 49.7-19.5 96.7-54.9 132.4-35.7 35.9-83 55.6-133.1 55.6z m137.7-189.5c0-76-61.8-137.7-137.7-137.7-75.9 0-137.7 61.8-137.7 137.7 0 75.9 61.8 137.7 137.7 137.7 76 0 137.7-61.8 137.7-137.7zM825.1 447.2c19.1 0 34.7 15.6 34.7 34.7s-15.6 34.7-34.7 34.7-34.7-15.6-34.7-34.7c0-19.2 15.6-34.7 34.7-34.7zM942.1 587.7c-11.8 11.8-27.2 18.2-43.6 18.2H754.9c-7.8 0-14.8 7.1-14.8 14.8v49.5c0 33.8-26.4 60.2-60.2 60.2H344.6c-33.8 0-60.2-26.5-60.2-60.2v-49.5c0-7.8-7.1-14.8-14.8-14.8H125.9c-33.8 0-60.2-26.5-60.2-60.2v-451.8c0-33.8 26.5-60.2 60.2-60.2h774.3c33.8 0 60.2 26.5 60.2 60.2V544.1c0 16.3-6.5 31.8-18.3 43.6z m-187.2-32h143.7c5.9 0 10-5.3 10-10V87c-1.9-2.9-5.3-4.7-8.4-4.7H125.9c-5.9 0-10 5.3-10 10V544.1c0 5.9 5.3 10 10 10h143.7c35.2 0 65 29.8 65 65v49.5c0 5.9 5.3 10 10 10h335.3c5.9 0 10-5.3 10-10v-47.9c0-35.2 29.7-65 65-65z"  horiz-adv-x="1024" />

    
    <glyph glyph-name="qianbao" unicode="&#58966;" d="M856.5 228.5c-12.5 0-22.6-9.9-22.9-22.4v-114.7c0-12-4.8-23.6-13.3-32.1s-20-13.3-32.1-13.3H155.9c-12 0-23.6 4.8-32.1 13.3s-13.3 20-13.3 32.1V675.1c0.9 24.4 20.9 43.7 45.3 43.6h632.4c12 0 23.6-4.8 32.1-13.3s13.3-20 13.3-32.1v-119.8c-1.4-8.9 2.6-17.9 10.2-22.8 7.6-4.9 17.4-4.9 25 0 7.6 4.9 11.6 13.9 10.2 22.8V680.2c0 23.1-9.2 45.1-25.6 61.3-16.4 16.2-38.6 25.1-61.7 24.8H151.4c-23 0.3-45.3-8.6-61.7-24.8a86.185 86.185 0 0 1-25.6-61.3v-594.3c0-47.6 38.6-86.2 86.2-86.2h641.4c47.6 0 86.2 38.6 86.2 86.2V205.6c-0.1 12-9.3 22.1-21.4 22.9z m0 0M873.3 498.8H542.6c-44.8 0.8-82.7-33.2-86.8-77.8-0.4-1.3-0.4-2.6 0-3.9v-71.6c0-22.9 9.1-44.8 25.2-60.9 16.2-16.2 38.1-25.2 60.9-25.2h330.2c23.1-0.3 45.3 8.7 61.7 24.8 16.4 16.2 25.6 38.3 25.6 61.3v67.2c0.1 47.6-38.5 86.1-86.1 86.1zM914.2 350c0-12-4.8-23.6-13.3-32.1s-20-13.3-32.1-13.3H547.1c-12 0-23.6 4.8-32.1 13.3s-13.3 20-13.3 32.1v56c0 12 4.8 23.6 13.3 32.1s20 13.3 32.1 13.3h321.2c12 0 23.6-4.8 32.1-13.3s13.3-20 13.3-32.1l0.5-56z m0 0M842.6 407.1c-15.1 0-27.4-12.3-27.4-27.4 0-15.1 12.3-27.4 27.4-27.4 15.1 0 27.4 12.3 27.4 27.4 0 7.3-2.9 14.2-8 19.4-5.2 5.1-12.2 8-19.4 8z m0 0"  horiz-adv-x="1024" />

    
    <glyph glyph-name="pengyouquan" unicode="&#58967;" d="M511.9 830.5c-17 0-33.7-1-50.2-2.9-40.5-4.6-79-14.5-115.3-29.3 0 0 300-296.8 308-307.7V807c-9 3.1-18.2 5.8-27.4 8.2-36.9 10-75.4 15.3-115.1 15.3z m0 0M825.2 701.6c-12.1 12.1-24.7 23-37.6 33.4-31.7 25.2-66.4 45.6-102.3 60.8 0 0 2.2-421.9 0-435.2l223.9 223.9c-4.1 8.5-8.7 17-13.6 25.2-19.1 32.8-42.3 63.8-70.4 91.9z m0 0M923.6 549.2s-296.8-300-307.7-308h316.5c3.1 9 5.8 18.2 8.2 27.4 9.9 36.8 15.3 75.1 15.3 114.9 0 17-1 33.7-2.9 50.2-4.7 40.6-14.9 79.2-29.4 115.5z m0 0M483.3 208l223.9-223.9c8.5 4.1 17 8.7 25.2 13.6 32.9 18.9 64 42.4 92.1 70.5 11.9 11.9 23 24.7 33.4 37.6 25.2 31.7 45.6 66.1 60.8 102.3 0-0.1-421.8-2.2-435.4-0.1z m0 0M368.4 278.3v-316.4c9-3.2 18.2-5.8 27.4-8.2 36.6-9.9 75.1-15.3 114.9-15.3 17 0 33.7 1 50.2 2.9 40.5 4.6 79 14.5 115.3 29.3 0 0-299.8 296.8-307.8 307.7z m0 0M336.9 410.4L113.1 186.5c4.1-8.5 8.7-17 13.6-25.2 18.9-32.9 42.4-64 70.5-92.1 11.9-12.1 24.7-23 37.6-33.4 31.7-25.2 66.1-45.6 102.3-60.8-0.2 0.2-2.3 422-0.2 435.4z m0 0M82 499.8c-9.9-36.6-15.3-75.1-15.3-114.9 0-17 1-33.7 2.9-50.2 4.6-40.5 14.5-79 29.3-115.3 0 0 296.6 300 307.7 307.7H90.3c-3.2-8.9-5.8-17.9-8.3-27.3z m0 0M288 769.5c-33-18.9-64-42.4-92.1-70.5-12.1-12.1-23-24.7-33.4-37.6-25.2-31.7-45.6-66.4-60.8-102.5 0 0 421.8 2.2 435.4 0L313.2 782.8c-8.5-4.1-17-8.7-25.2-13.3z m0 0"  horiz-adv-x="1024" />

    
    <glyph glyph-name="kefu" unicode="&#58968;" d="M904.8 576.9c-21.5 49.8-52.3 94.5-91.5 132.9-39.2 38.4-84.9 68.5-135.7 89.6C624.9 821.1 569 832.1 511.3 832.1c-57.6 0-113.5-11-166.2-32.8-50.8-21-96.5-51.2-135.7-89.5-39.2-38.4-70-83.1-91.5-132.9-22.3-51.6-33.6-106.3-33.6-162.8 0-101.7 37.7-199.7 106.2-276 65.9-73.4 155.7-121.8 253.5-137-8.8-56.2-7-58.3-4-61.7 1.7-2 4.2-3.1 6.7-3.1 2.4 0 3.3 0 69.5 27.6 38.4 16 85.7 36 118.8 49.9 43.2 12.8 84 32.2 121.1 57.7 36.8 25.2 69.1 55.8 96.2 90.9 56.3 73 86 160 86 251.7 0 56.4-11.3 111.2-33.5 162.8zM602 64.5l-0.7-0.2L499 19.4v35.1l-8 0.6c-191.6 13.2-341.8 170.9-341.8 359 0 201.8 159 360 362.1 360 202.9 0 368-161.5 368-360 0-166.6-114-310.3-277.3-349.6zM665.3 293.1c-3.5 1.4-6.8 2.8-10.5 4.5l-6.8 3.1-4-6.3c-17.2-27-68.1-54.3-132.2-54.3-29.7 0-58.6 5.9-83.6 17.1-22.5 10.1-40.1 23.8-49.5 38.6l-3.9 6.2-42.8-18.6 4.6-8.3c12.1-21.8 35.5-41.6 66.1-55.5 31.8-14.6 69.1-22.3 107.9-22.3 77.3 0 149.6 31.4 175.7 76.3l4.7 8.1-8.5 4c-7.3 3.3-12.6 5.5-17.2 7.4z"  horiz-adv-x="1024" />

    
    <glyph glyph-name="erweima" unicode="&#58969;" d="M99.4 408.5h389.2V797.8H99.4v-389.3z m97.3 292h194.6v-194.6H196.7V700.5z m340.6 97.3v-389.2h389.2V797.8H537.3z m292-292H634.6V700.5h194.6v-194.7z m-583.9 48.7h97.3v97.3h-97.3v-97.3z m-146-583.9h389.2V359.9H99.4v-389.3z m97.3 292h194.6V68H196.7V262.6z m583.9 389.2h-97.3v-97.3h97.3v97.3zM537.3-29.4h97.3v97.3h-97.3v-97.3z m97.3 292V68H732V262.6h-97.4z m194.7-194.7H732v-97.3h194.6V165.3h-97.3v-97.4z m0 194.7h97.3v97.3h-97.3v-97.3z m-292 97.3v-97.3h97.3v97.3h-97.3zM245.4 116.6h97.3v97.3h-97.3v-97.3z m0 0"  horiz-adv-x="1024" />

    
    <glyph glyph-name="fenxiang" unicode="&#58970;" d="M305.8 383.8l206.3-206.3 206.3 206.3-206.3 206.3-206.3-206.3z m206.3-134.4L377.7 383.8l134.4 134.4 134.4-134.4-134.4-134.4zM916.9 575.5l-2.8 5.9-45.9-21.9 2.8-5.9c25.6-53.6 38.5-111.1 38.5-170.9 0-219.2-178.3-397.4-397.4-397.4-219.1 0-397.4 178.3-397.4 397.4 0 219.1 178.3 397.4 397.4 397.4 59.3 0 116.3-12.7 169.4-37.8l6-2.8 21.7 46-6 2.8C643.2 816.7 578.9 831 512.1 831c-60.5 0-119.2-11.9-174.5-35.2-53.4-22.6-101.3-54.9-142.5-96.1-41.2-41.2-73.5-89.1-96.1-142.5-23.4-55.3-35.2-114-35.2-174.5S75.7 263.5 99 208.2c22.6-53.4 54.9-101.3 96.1-142.5 41.2-41.2 89.1-73.5 142.5-96.1 55.3-23.4 114-35.2 174.5-35.2s119.2 11.9 174.5 35.2c53.4 22.6 101.3 54.9 142.5 96.1 41.2 41.2 73.5 89.1 96.1 142.5 23.4 55.3 35.2 114 35.2 174.5 0 67.5-14.7 132.4-43.5 192.8zM741.1 740.4l96.8 0.4-221-216 35.5-36.3 221.4 216.3 0.2-97.2 50.8 0.1-0.3 146.7 2.9 2.8-2.9 2.9-0.1 31.8H918.8l-25.3-0.1-1.7 1.7-1.7-1.7h-16.5v-0.1l-132.7-0.5z"  horiz-adv-x="1024" />

    
    <glyph glyph-name="gouwuche" unicode="&#58971;" d="M331.9 146.1h490c10.7 0 20.6 5.7 26 15 5.3 9.2 5.3 20.7 0 30-5.3 9.2-15.3 15-26 15H334.4L283.1 559 254 723.4c-7.2 56.9-58.8 101.5-117.6 101.5H97.9c-16.5 0-30-13.5-30-30s13.4-30 30-30h38.4c28.7 0 54.8-22.5 58.3-50.2v-0.2l29.2-164.9 51.3-352.5c3.5-28.1 28.9-51 56.8-51zM762.1 117.7c-49.8 0-90.3-39.9-90.3-88.9 0-49 40.5-88.9 90.3-88.9s90.3 39.9 90.3 88.9c0 49-40.5 88.9-90.3 88.9z m30.3-88.9c0-16-13.6-29-30.3-29-16.7 0-30.3 13-30.3 29s13.6 28.9 30.3 28.9c16.7 0 30.3-12.9 30.3-28.9zM339.7 117.7c-49.8 0-90.3-39.9-90.3-88.9 0-49 40.5-88.9 90.3-88.9s90.3 39.9 90.3 88.9c0 49-40.5 88.9-90.3 88.9z m30.3-88.9c0-16-13.6-29-30.3-29-16.7 0-30.3 13-30.3 29s13.6 28.9 30.3 28.9c16.7 0 30.3-12.9 30.3-28.9zM914 720.6c-9.3 10.4-22.6 16.4-36.5 16.4H354.7c-10.7 0-20.6-5.7-26-15-5.3-9.2-5.3-20.7 0-30 5.3-9.2 15.3-15 26-15h514.9v-0.4l-47.3-323.4h-0.4l-410.8-29.5c-16.5-1.2-28.9-15.6-27.8-32.1 1.1-15.8 14.3-27.8 29.9-27.8 0.7 0 1.5 0 2.2 0.1l408.7 29.5c28.7 0.3 53.9 22.6 57.4 50.8L929 668.8v0.3c2.3 19.4-3.4 38.6-15 51.5z"  horiz-adv-x="1024" />

    
    <glyph glyph-name="jiaocha-yuanquan" unicode="&#58972;" d="M924.1 558c-22.5 53.4-54.9 101.2-96 142.4-41.2 41.2-89 73.4-142.4 96-55.3 23.3-114 35.3-174.5 35.3S392 819.8 336.8 796.4c-53.4-22.5-101.2-54.9-142.4-96-41.2-41.2-73.4-89-96-142.4C75 502.7 63.1 444 63.1 383.5S74.9 264.3 98.4 209c22.5-53.4 54.9-101.2 96-142.4 41.2-41.2 89-73.4 142.4-96 55.3-23.3 114-35.3 174.5-35.3s119.2 11.8 174.5 35.3c53.4 22.5 101.2 54.9 142.4 96 41.2 41.2 73.4 89 96 142.4 23.3 55.3 35.3 114 35.3 174.5-0.2 60.6-12.1 119.3-35.4 174.5zM511.2-24.5c-225 0-408 183.1-408 408 0 225 183.1 408 408 408 225 0 408-183.1 408-408s-183-408-408-408z m0 0M758.6 656.6L512.9 410.8 268.1 655.7l-28.3-28.3 244.9-244.9-245-244.8 28.3-28.3 244.8 244.8 245.7-245.7 28.3 28.2-245.6 245.8 245.7 245.8-28.3 28.3z m0 0"  horiz-adv-x="1024" />

    
    <glyph glyph-name="gouwuchedaiyuanquan" unicode="&#58973;" d="M924.1 558c-22.5 53.4-54.9 101.2-96 142.4-41.2 41.2-89 73.4-142.4 96-55.3 23.3-114 35.3-174.5 35.3S392 819.8 336.8 796.4c-53.4-22.5-101.2-54.9-142.4-96-41.2-41.2-73.4-89-96-142.4C75 502.7 63.1 444 63.1 383.5S74.9 264.3 98.4 209c22.5-53.4 54.9-101.2 96-142.4 41.2-41.2 89-73.4 142.4-96 55.3-23.3 114-35.3 174.5-35.3s119.2 11.8 174.5 35.3c53.4 22.5 101.2 54.9 142.4 96 41.2 41.2 73.4 89 96 142.4 23.3 55.3 35.3 114 35.3 174.5-0.2 60.6-12.1 119.3-35.4 174.5zM511.2-24.5c-225 0-408 183.1-408 408 0 225 183.1 408 408 408 225 0 408-183.1 408-408s-183-408-408-408z m0 0M384.1 213.3h303c9.1 0 17.6 4.9 22.1 12.8 4.6 7.9 4.6 17.7 0 25.5-4.5 7.9-13 12.8-22.1 12.8H391.7l-30.9 212.2-18 101.7c-5 38.5-39.9 68.7-79.7 68.7h-23.8c-14.1 0-25.5-11.5-25.5-25.5s11.5-25.5 25.5-25.5h23.8c14.1 0 27.4-11.4 29.1-24.9l18.1-102.4L342 250.9c2.6-20.8 21.4-37.6 42.1-37.6zM650.1 209.7c-34.6 0-62.8-27.8-62.8-62s28.2-62 62.8-62c34.7 0 62.8 27.8 62.8 62s-28.2 62-62.8 62z m-11.8-62c0 6 5.3 10.9 11.8 10.9 6.5 0 11.8-4.9 11.8-10.9s-5.3-10.9-11.8-10.9c-6.5 0-11.8 4.9-11.8 10.9zM388.9 209.7c-34.6 0-62.8-27.8-62.8-62s28.2-62 62.8-62c34.7 0 62.9 27.8 62.9 62-0.1 34.2-28.3 62-62.9 62z m11.7-61.6v-0.4c0-6-5.3-10.9-11.8-10.9-6.5 0-11.8 4.9-11.8 10.9s5.3 10.9 11.8 10.9c6.4 0 11.6-4.7 11.8-10.5zM749.3 580.2c-7.1 7.9-17.2 12.5-27.8 12.5H398.2c-9.1 0-17.6-4.9-22.1-12.8s-4.5-17.7 0-25.5c4.6-7.9 13-12.8 22.1-12.8h310.4l-27.3-186.7L432.6 337c-14-1-24.6-13.3-23.6-27.3 1-13.3 12.1-23.7 25.5-23.7 0.6 0 1.3 0 1.9 0.1L689 304.3c21 0.3 39.5 16.7 42.2 37.5l29.3 200.7 0.1 0.4c1.3 13.9-2.8 27.9-11.3 37.3z"  horiz-adv-x="1024" />

    
    <glyph glyph-name="daishouhuo" unicode="&#58974;" d="M923.4 589.9c-0.1 0.2-0.2 0.6-0.4 1.1-0.2 0.6-0.5 1.4-1 2.3L806.2 815.6c-5.2 10-15.4 16.2-26.7 16.2h-533c-11.3 0-21.5-6.2-26.7-16.2L104.1 593.3c-0.5-0.9-0.8-1.7-1-2.3-0.2-0.5-0.3-0.9-0.4-1.2-1.3-3.6-2-7-2-10.5v-612.6c0-16.6 13.5-30.1 30.1-30.1h764.5c16.6 0 30.1 13.5 30.1 30.1V579.3c0 3.5-0.7 7-2 10.6z m-762.5-593V549.2h704.2v-552.3H160.9z m600.3 774.6l84.4-162H180.4l84.4 162h496.4zM723 459L443 189.7 303.3 327.6c-11.8 11.7-30.9 11.5-42.6-0.3-11.7-11.8-11.5-31 0.3-42.6l160.6-158.5c5.7-5.6 13.2-8.7 21.1-8.7 7.8 0 15.3 3 20.9 8.4l301.1 289.6c12 11.5 12.3 30.6 0.8 42.6-11.4 12-30.6 12.4-42.5 0.9z"  horiz-adv-x="1024" />

    
    <glyph glyph-name="dingdan" unicode="&#58975;" d="M271 244.3h480.7v-57H271zM482.7 770.9h-88.8v-51.3h234.9v51.3H540V778h111V829.2H371.7V778h111zM875 744.6c-23.7 23.7-57.4 36.3-97.3 36.3h-56.9v-57.3h56.9c42.8 0 76.2-33.5 76.2-76.2v-555c0-54.3-44.2-98.4-98.4-98.4H267.1c-54.3 0-98.4 44.2-98.4 98.4v555c0 42.8 33.5 76.2 76.2 76.2h56.9v57.3h-56.9c-39.9 0-73.6-12.5-97.3-36.3-23.7-23.7-36.3-57.4-36.3-97.3v-555c0-45.4 14.9-84.3 43.2-112.6 28.3-28.3 67.2-43.2 112.6-43.2h488.4c45.4 0 84.3 14.9 112.6 43.2 28.3 28.3 43.2 67.2 43.2 112.6v555c0 39.9-12.6 73.6-36.3 97.3zM270.6 548.8h480.7v-57H270.6zM270.1 396.4h480.7v-57H270.1z"  horiz-adv-x="1024" />

    
    <glyph glyph-name="daishouhuo1" unicode="&#58976;" d="M887.3 320.7v-46.5c0-14.7 0.1-29.8-0.1-44.7-0.1-20.4-0.4-41.1-0.6-61.2l-0.1-10.2h-4.3c-18.9 0-38.5 0-57.7 0.1-2.2 0-4.8 0.2-7.5 0.4-5.1 0.4-10.8 0.8-17 0.2-18-1.6-29.7-10.5-34.9-26.2-1.5-4.6-4.7-10-9.1-15.4-4.3-5.3-10-10.7-17.8-16.9-2.7-2.1-6.4-4.2-10.3-6.3l-0.2-0.1c-0.6-0.3-1.2-0.7-1.8-1-1 0-1.9 0-2.9-0.1h-0.3c-6.4-0.1-13-0.2-20-1.2-1.9-0.3-4.3 1-10.3 4.7-1.6 1-3.2 2-5 3-4.3 2.5-8.9 6.6-13.4 11.9-4.6 5.5-8.8 11.7-13.2 18.4-1.1 1.6-2.1 3.2-3.2 4.7-3.1 13.7-14.6 23.3-28.4 23.7-5.6 0.2-11.2 0.1-16.7 0.1H368.8c-0.4 0-0.8 0.1-1.3 0.2-1.1 0.2-2.1 0.3-3.2 0.4-8.4 0.8-30.8 2.9-42.2-16.8-1.9-3.2-3.3-6.4-4.6-9.3-1.4-3.1-2.8-6.1-4.2-7.9-2.1-2.7-3.4-5.3-4.3-7.1 0-0.1-0.1-0.2-0.1-0.3l-0.5-0.5c-5.9-6-11.4-11.6-17.2-16.2-3-2.3-6.9-4.5-11.2-6.9-0.7-0.4-1.4-0.8-2.1-1.1-1.6 0-3.2-0.1-4.8-0.2-6.7-0.2-13.1-0.4-19.5-0.4-3.5 3.1-8 5.4-12.8 6.2-1 0.4-3.7 2.9-5.1 4.2-1.3 1.2-2.8 2.5-4.4 3.8-1.9 1.6-4.2 4.5-6.6 7.6-1.3 1.7-2.6 3.4-4.1 5.2-0.6 0.8-1.3 1.5-1.9 2.2-0.9 1-2.2 2.5-2.5 3.1-0.9 1.7-1.9 3.7-2.9 5.9-1.8 3.8-3.7 8.1-6.6 12.5-5.1 7.9-14.2 13.7-23.2 14.8-6.4 0.8-12.4 0.6-17.8 0.5-1.8 0-3.6-0.1-5.4-0.1-2.7 0-5.5 0-8.4 0.1-4.9 0.1-10 0.1-15.2 0 0.1 29.1 0.1 58.5 0.1 86.9 0 26.4 0 53.6 0.1 80.7 2.4 3 5.1 5.9 7.9 9.1 2.2 2.4 4.5 4.9 6.7 7.6 5.4 6.3 10.8 12.7 16.2 19.1l0.2 0.2c6.3 7.4 12.7 15 19.2 22.5 6.3 7.3 12.9 14.8 19.2 22l0.1 0.1c3.7 4.2 7.3 8.3 10.9 12.5 1.8 2 3.2 3.9 4.6 5.7 1.3 1.8 2.7 3.6 4 5.4 2.4 3.3 4.6 6.4 6.9 9.1 7 8.2 14.2 16.2 21.3 23.7 0.8 0.8 1.6 1.7 2.3 2.5 0.4 0.5 0.7 0.8 1 1.1 6.7-0.2 13.3-0.3 19.7-0.4h0.4c2.1 0 4.2-0.1 6.3-0.1v-98.2c0-39 0-79.4 0.1-119.1 0-20.7 9-31.4 29.1-34.9 5.6-1 11.7-1.1 18.6-0.3 15.2 1.7 26.7 16.1 26.7 33.6V611.9c20.9 0.1 42.5 0 61.7 0h47.5v71.5l-18.6 1.7-0.5 0.1c-0.8 0.1-2.2 0.3-3.9 0.3h-29.2c-30.2 0-61.4 0-92.1-0.1-22-0.1-39.3-17.6-39.3-40V620c0-26.5 0-53.9 0.1-81-16.3 0-33.4-0.1-50.3 0.1-10.5 0.2-19.5-3.8-25.9-11.4l-2.3-2.8c-7.5-9-15.3-18.2-23-27.2-5.4-6.3-10.8-12.5-16.3-18.8l-0.2-0.2c-5.9-6.8-12-13.7-17.9-20.7-7.5-8.7-14.9-17.5-22.1-26.1-3.2-3.8-6.4-7.5-9.5-11.3L108 411l-18.6-21.9c-2.2-2.6-4.4-5.2-6.7-7.7-4.1-4.7-8.3-9.5-12.4-14.6-4.2-5.1-6.7-12-6.9-18.9-0.2-6.1-0.2-12.2-0.1-18.1v-191.2c0-2.2-0.2-4.7-0.4-7.4-0.3-3.4-0.5-6.9-0.5-10.8 0.1-21.2 14.3-35.4 35.4-35.5H148.7c1.2-2.6 2.9-4.8 4.9-6.8 2.7-2.6 5.4-6.2 8.2-10 5-6.8 11.2-15.3 20.7-21.8 1.7-1.2 3.6-2.8 5.7-4.5 5.3-4.5 12.5-10.5 22.5-13.7 1.4-1.1 2.9-2 4.4-2.7l0.4-0.2c3.4-1.6 7.6-3.6 12.7-4.8 3.2-0.7 6.2-1.2 9-1.6 2.9-0.4 5.6-0.8 7.5-1.5 15.3-4.8 29.3-4.5 42.9 0.9 0.5 0.1 1.3 0.2 1.8 0.3 0.9 0.1 1.7 0.2 2.5 0.4 1.3 0.2 2.7 0.4 4.2 0.6 3.7 0.5 8.3 1.1 13.1 2.4 5.6 1.6 9.5 4.7 11.8 6.6 0.2 0.2 0.5 0.4 0.8 0.6 1.8 1 3.8 2.1 6 3.2 5.3 2.7 11.3 5.9 17 10.5 15.7 12.8 27.3 26.6 35.4 42.3 54.8-0.2 110.4-0.2 164.2-0.2h52.4c1.1-2.2 2.3-4.2 3.5-5.9 2.4-3.6 5-6.8 7.3-9.6 0.9-1.1 1.7-2.2 2.6-3.3 3.1-3.9 6.2-7.9 10-11.9 2.9-3.1 5.9-5.3 8.3-7 1-0.8 2.1-1.6 2.7-2.1 11-9.8 22.9-15.8 34.5-21.6l1.1-0.6c3.7-1.9 7.2-2.4 9-2.7l0.3-0.1c2-0.4 4-0.7 6-1.1l0.4-0.1c2-0.4 4.1-0.7 6.1-1.1 2.1-0.4 4.2-0.8 6.2-1.2l0.4-0.1c4.2-0.8 8.4-1.6 12.8-2.3 2.1-0.3 4.2-0.5 6.3-0.5 7.6 0 14 2.1 18.7 3.7 1.7 0.6 3.2 1.1 4.5 1.4 0.9 0.2 3 0.4 4.7 0.5 6.7 0.5 17.6 1.3 27.1 9.5 9.3 3.3 16.4 9.1 21.7 13.4l0.1 0.1c1.2 1 2.3 1.9 3.5 2.8 9.7 7.5 19.7 15.9 25.7 29.3 0.8 1.8 2.6 4.2 4.4 6.8 0.8 1.1 1.6 2.2 2.3 3.3 0.1 0.2 0.3 0.4 0.4 0.5 24.8-0.3 49.7-0.2 73.9-0.2h26.8c18.4 0 28.5 10.1 28.5 28.3V320.4h-43.8l-25.5 0.3zM951.1 528.7l8.4 0.1v4.8c0 1.5-0.1 3.9-0.5 6.5l-1.5 8.7 2.9 0.6-5.8 21.2c-0.6 2.1-1.2 4.1-1.8 6v0.2c-1 3.1-1.9 6.1-2.2 8.2-1.7 15.4-7.8 28.4-12.8 38-0.8 1.5-1.6 3-2.4 4.6-5.6 10.8-11.4 21.9-19.6 32.7-15.5 20.5-31.8 36.9-49.7 50.2l-1.6 1.2c-12.9 9.6-26.3 19.5-44.2 24.8-0.8 0.2-2.3 0.9-3.6 1.5-1.6 0.7-3.6 1.6-5.7 2.4-2.2 0.8-4.4 1.7-6.7 2.6-6.8 2.7-13.9 5.4-21.9 7.2-7.1 1.6-13.7 2.1-20.2 2.6-3.1 0.2-6.1 0.5-8.9 0.8-0.7 0.1-2.1 0.4-3.3 0.7-3.5 0.9-8.3 2-13.9 1.9-6.7-0.2-13.1-0.8-19.3-1.5-3.5-0.4-6.8-0.7-10-0.9-2-0.2-4.3-0.2-6.7-0.2-5.5 0-12.3 0-19.8-1.8l-1.9-0.5c-7.1-1.7-14.5-3.4-22-6-3.6-1.2-6.8-2.5-9.9-3.8-3.2-1.3-6.3-2.5-9.1-3.4-14.9-4.5-27.4-12-38.7-19.4-15.7-10.3-28.7-22.7-39.3-33.5-12.9-13.1-24.4-28.2-35.2-46-4.1-6.9-6.8-13.7-9.4-20.3l-0.1-0.2c-0.6-1.5-1.2-3.1-1.8-4.6-0.9-2.2-1.8-4.4-2.8-6.6-3.3-7.9-6.8-16-9.1-25.1-2-7.9-2.5-15.3-3-22.5-0.2-2.9-0.4-5.7-0.7-8.4-0.1-1.1-0.4-2.6-0.7-4.2-0.8-4.6-1.9-10.3-1.2-16.7 0.2-2.3 0.2-5.2 0.1-8.2-0.1-5.9-0.2-13.3 1.8-21.3 1.1-4.3 1.4-9.5 1.7-15.1 0.3-4.7 0.6-9.5 1.4-14.7 1.1-7.8 3.3-15.8 6.5-23.9 2.3-5.9 4.9-11.4 7.4-16.8 1.8-3.8 3.5-7.4 5-11 6.7-15.9 16.6-30.8 31.1-46.8 7.6-8.5 16.1-16.9 25.9-25.9 8.4-7.7 15.8-13.5 23.2-18.2 7.7-4.9 16.4-9.3 27.4-14.1 1.9-0.8 3.8-1.6 5.7-2.5l0.3-0.2c11-4.8 22.4-9.8 34.9-12.9 1.6-0.4 3.5-1 5.4-1.6 7.9-2.4 18.7-5.7 31-3.2 1.1-0.1 2.3-0.2 3.5-0.4 3.7-0.4 7.6-0.8 11.7-1.1 3.1-0.2 6-0.1 8.4 0 1.3 0 2.5 0.1 3.5 0.1 1.3 0 2.7-0.1 4-0.1h0.2c2-0.1 4-0.2 6.2-0.2 1.5 0 2.9 0 4.3 0.1 4.1 0.2 7.3 1.4 9.4 2.1h2.9c3.2 0 7.3 0 11.7 0.8 8.1 1.5 16.6 3.5 25.8 6.2 5 1.4 9.3 3.2 13.5 5 1.4 0.6 2.8 1.1 4.2 1.7 1.5 0.6 3.2 1.2 5 1.8 4.9 1.7 11.1 3.8 17 7.5 2.6 1.6 5.2 3.2 7.8 4.7l0.2 0.1c12.5 7.5 25.5 15.3 36.9 27.2 3.6 3.8 7.4 7.5 11.5 11.5 5.1 5 10.4 10.2 15.5 15.7 13.9 15.2 23.1 32.5 31 49 4.9 10.3 11.1 23.1 12.3 38.4 0.1 0.5 0.4 1.6 0.6 2.4 0.4 1.3 0.8 3 1.2 4.8 0.3 1.3 0.6 2.6 0.8 4 1.1 4.9 2.1 10 3 15.3 0.5 3.4 0.7 6.7 0.8 9.4 0.1 1.2 0.1 2.3 0.2 3.2 0.7 2 2 5.4 2.1 9.7 0.2 5.4 0.2 10.7 0.1 15.9l-8.4-0.3z m-386.3-16.3c-1.9 3.7-1.4 9.6-0.7 16.5 0.2 2.7 0.5 5.5 0.6 8.4 0.2 4.3 1.8 9.7 3.6 15.5 0.9 2.9 1.8 6 2.7 9.2 0.4 1.7 0.9 3.5 1.3 5.2 1 4.1 1.9 8 3.2 11.1 3.3 8 7.3 16.5 12.3 25.9 6.2 11.6 14.5 22.6 24.7 32.6 12.6 12.3 24.6 21.4 36.8 27.9 8.4 4.5 16.9 8.5 25.2 11.9 0.8 0.3 3.3 0.7 4.9 1 1.9 0.3 4.1 0.7 6.5 1.2 2.6 0.6 5 1.3 7.2 1.8 3.3 0.9 6.3 1.7 9.1 2.2 6.3 1.2 13 2.2 19.5 3.1l0.8 0.1h9l8.6-0.5c6.7-1.1 13.5-2.8 20.7-4.6l3.2-0.8c12.2-3 24-7.4 36.3-13.6 22.8-11.5 41.9-28.2 58.6-50.9 7-9.5 12.6-21.4 18.1-32.9l1.2-2.5c1.3-2.7 2.3-6.8 3.3-11 0.6-2.7 1.3-5.5 2.1-8.4 0.5-1.9 1.1-3.5 1.6-4.8 0.2-0.6 0.6-1.6 0.7-1.8 0.2-0.8 0.3-2.1 0.4-3.4 0.4-3.5 0.8-7.8 2.5-12.7 1.8-5.1 1.3-12.1 0.8-19.5-0.1-1.3-0.2-2.7-0.3-4-0.6-9.6-1.3-18.1-4.5-25.2-2.2-4.9-3.5-9.8-4.6-13.8-0.7-2.7-1.4-5.2-2.1-7-2.6-6.4-5.8-12.7-9.1-19.3l-0.1-0.2c-0.8-1.5-1.5-3.1-2.3-4.6-1.7-3.4-3.3-6.5-4.9-8.8-9.4-13.5-21.2-28.7-37.2-39.4-3.1-2-6-4.1-8.9-6.2-5.2-3.7-10.1-7.2-14.9-9.8l-1-0.5c-8.5-4.6-16.5-8.9-24.3-10-10.7-1.6-22.1-3.4-33.2-7.2-6.5-2.2-14.2-1.9-23.1-1.4-1.6 0.1-3.3 0.2-4.9 0.2-2.2 0.1-5.3 0.9-8.8 1.8-2.1 0.6-4.3 1.1-6.7 1.6-2.3 0.5-4.6 0.9-6.8 1.3-4.2 0.8-8.2 1.5-11.5 2.6-6.2 2-12.9 4.7-20.5 8.3-5.6 2.6-12.1 5.9-17.6 9.6-12.8 8.8-26.1 17.8-35.6 29.6-1.5 1.9-3.1 3.6-4.5 5.3-3.2 3.7-6.3 7.3-8 10.4-1.8 3.3-3.7 6.5-5.4 9.6-4.1 7.2-8 14-11 21-1.8 4.1-3.1 8.9-4.5 14-1.3 4.7-2.6 9.5-4.4 14.6-0.4 1-0.8 2.1-1.2 3.1-0.1 0.4-0.5 1.2-0.7 1.9 0.9 5.9 0.2 11.6-2.2 16.3zM681 489.3c0-17.6 10-27.6 27.5-27.7H815.5c7.9 0 14.7 2.7 19.6 7.8 3.4 3.5 7.4 9.8 7 19.6-0.1 2.8-0.1 5.7-0.1 8.8v4.7c0 4.8 0 13.7-7.2 20.9-7.2 7.2-16.1 7.2-20.9 7.2h-64.2V607v10.2 24.6c0.1 7.9-2.5 14.6-7.6 19.5-5 4.9-11.8 7.3-19.6 7-2.9-0.1-6-0.1-9.2-0.1h-5.2c-17.5 0-27.2-9.7-27.2-27.2v-98.4c0.1-17.7 0.1-35.5 0.1-53.3z"  horiz-adv-x="1024" />

    
    <glyph glyph-name="daifukuan" unicode="&#58977;" d="M708.9 520c-27.7 11.2-65.1 17.6-102.6 17.6-5 0-10.1-0.1-15.4-0.4-19.9 38.8-89.2 56.3-151.5 56.3-39.7 0-77.1-6.6-105.3-18.7-33.9-14.4-51.8-35.4-51.8-60.7v-228.6c0-18.1 9.5-43.5 54.5-61.7 27.7-11.2 65.1-17.6 102.6-17.6 4.7 0 9.8 0.1 15.4 0.4 8.7-16.9 27.3-30.9 54.4-40.9 27.3-10 61.8-15.5 97.1-15.5 39.7 0 77.1 6.6 105.3 18.7 33.9 14.4 51.8 35.4 51.8 60.7V458.3c0 18.1-9.5 43.5-54.5 61.7z m-22.5-73.7c-20-7.7-46.7-12.2-75.3-12.7h-4.8c-30.4 0-58.8 4.5-80.1 12.7-12.2 4.7-18.5 9.4-21.2 12 2.6 2.6 9 7.3 21.2 12 21.2 8.2 49.6 12.7 80.1 12.7 30.4 0 58.8-4.5 80.1-12.7 12.2-4.7 18.5-9.4 21.2-12-2.7-2.6-9-7.3-21.2-12z m-80.1-91.2c-30.4 0-58.8 4.5-80.1 12.7-14.5 5.6-20.7 11.1-22.3 13.3v15.4c27.8-11.3 64.3-17.6 102.3-17.6 38.1 0 74.5 6.3 102.3 17.6v-15.4c-1.6-2.1-7.8-7.7-22.3-13.3-21-8.1-49.5-12.7-79.9-12.7z m0-75.1c-30.4 0-58.8 4.5-80.1 12.7-14.5 5.6-20.7 11.1-22.3 13.3v12.1c27.8-11.3 64.2-17.6 102.3-17.6 38.1 0 74.5 6.3 102.3 17.6V306c-1.6-2.1-7.8-7.7-22.3-13.3-21-8.1-49.5-12.7-79.9-12.7zM504 243c27.8-11.3 64.2-17.6 102.3-17.6 38.1 0 74.5 6.3 102.3 17.6v-12.1c-1.6-2.1-7.8-7.7-22.3-13.3-21.2-8.2-49.7-12.7-80.1-12.7-30.4 0-58.8 4.5-80.1 12.7-14.5 5.6-20.7 11.1-22.3 13.3V243z m-64.5 246.5c-30.4 0-58.8 4.5-80.1 12.7-12.2 4.7-18.5 9.4-21.2 12 2.6 2.6 9 7.3 21.2 12 20 7.7 46.8 12.2 75.3 12.7h4.7c36 0 63.3-5.9 81.1-13.1-22.4-6.8-46-17.8-59.7-35.5-7.3-0.5-14.4-0.8-21.3-0.8z m9.7-132.9v-20.5c-3.3-0.1-6.6-0.2-9.8-0.2-30.4 0-58.8 4.5-80.1 12.7-14.5 5.6-20.7 11.1-22.3 13.3V374c27.8-11.3 64.2-17.6 102.3-17.6 3.3 0.1 6.6 0.1 9.9 0.2z m0 78.5v-23.8c-3.3-0.1-6.6-0.2-9.8-0.2-30.4 0-58.8 4.5-80.1 12.7-14.5 5.6-20.7 11.1-22.3 13.3v15.4c27.8-11.3 64.2-17.6 102.3-17.6 3.3 0 6.5 0.1 9.9 0.2z m0-153.6V261c-3.3-0.1-6.6-0.2-9.8-0.2-30.4 0-58.8 4.5-80.1 12.7-14.5 5.6-20.7 11.1-22.3 13.3V299c27.8-11.3 64.2-17.6 102.3-17.6 3.3 0 6.6 0 9.9 0.1zM891.4 343.5l-0.1-1c-0.6-16.6 11.9-31 28.4-32.7 16.5-1.7 31.7 9.7 34.6 26.1l0.1 1c7.4 72.9-3.3 147.2-31 215-22.1 54.7-54.4 103.7-95.9 145.6-41.5 41.9-90.1 74.7-144.5 97.4-54.3 23-111.7 34.8-170.6 35-58.9 0.2-116.4-11-170.9-33.5-54.6-22.2-103.6-54.6-145.4-96.2-41.9-41.6-74.5-90.3-97.1-144.7-22.9-54.4-34.7-111.9-34.9-171-0.3-59 11-116.7 33.4-171.2 22.1-54.7 54.4-103.7 95.9-145.6 41.5-42 90.1-74.7 144.5-97.5 55.3-23.3 113.3-35.1 172.6-35.1l14.8 0.1v0.2c52.8 1.8 104.6 12.9 154.2 33.3l0.3 0.1c15.9 7 23.2 25 16.7 41.1-6.6 16.1-24.4 23.9-40.7 17.7l-0.4-0.2c-93.2-38.5-200-38.1-292.9 1.3-93.2 38.9-168.3 114.9-206.2 208.6-38.4 93.5-37.9 200.5 1.3 293.7 38.7 93.3 114.5 168.6 208.1 206.7 93.2 38.5 200 38.1 292.9-1.3 93.2-38.9 168.3-114.9 206.2-208.5 23.8-58 33-121.8 26.6-184.4zM929.4 125.3l-80 3.1 3 80.3c0.3 8.5-2.6 16.6-8.4 22.8-5.6 6-13.2 9.6-21.4 10.1-8 0.8-15.9-1.6-22.2-6.9-6.9-5.8-11-14.4-11.4-23.5l-4.3-112c-0.3-8.5 2.6-16.6 8.4-22.8 0.7-0.8 1.5-1.5 2.2-2.2 5.5-4.9 12.5-7.7 19.8-8l111.7-4.3h1.6c17.2 0 31.4 14 31.7 31.2 0.6 17.3-13.3 31.8-30.7 32.2z"  horiz-adv-x="1024" />

    
    <glyph glyph-name="dagou-yuanquan" unicode="&#58978;" d="M923.9 558.8c-22.5 53.4-54.9 101.2-96 142.4-41.1 41.1-89 73.4-142.4 96-55.3 23.3-113.9 35.1-174.4 35.1S392 820.5 336.7 797.1c-53.4-22.5-101.2-54.9-142.4-96-41.1-41.2-73.4-89-96-142.4C75 503.5 63.2 444.9 63.2 384.4c0-60.5 11.8-119.1 35.2-174.4 22.5-53.4 54.9-101.2 96-142.4 41.2-41.2 89-73.4 142.4-96 55.3-23.3 113.9-35.2 174.4-35.2s119.1 11.8 174.4 35.2c53.4 22.5 101.2 54.9 142.4 96 41.1 41.1 73.4 89 96 142.4 23.3 55.3 35.2 113.9 35.2 174.4-0.1 60.5-12 119.2-35.3 174.4zM511.2-23.4c-225 0-407.9 183-407.9 407.9 0 225 183 407.9 407.9 407.9 225 0 407.9-183 407.9-407.9-0.1-225-183-407.9-407.9-407.9z m0 0M794.4 569.5c-16.4 14.8-41.7 13.4-56.6-3L469 267.6 304.5 406.5c-16.9 14.2-42.1 12.1-56.5-4.8-14.3-16.9-12.1-42.1 4.8-56.5l187.7-158.5c1-0.9 2.1-1.7 3.2-2.4 0.7-0.8 1.5-1.5 2.3-2.2 7.6-6.9 17.2-10.3 26.7-10.3 11 0 21.9 4.5 29.8 13.3l295 327.9c14.7 16.4 13.3 41.7-3.1 56.5z m0 0"  horiz-adv-x="1024" />

    
    <glyph glyph-name="qq" unicode="&#58979;" d="M511.3 832.6c-247.7 0-448.4-200.8-448.4-448.4 0-247.6 200.8-448.4 448.4-448.4 247.7 0 448.4 200.8 448.4 448.4 0.1 247.7-200.7 448.4-448.4 448.4zM710 274.7s-14.2-38.7-40.2-73.5c0 0 46.5-15.8 42.6-56.9 0 0 1.6-45.9-99.4-42.7 0 0-71 5.5-92.3 35.6H502c-21.3-30-92.3-35.6-92.3-35.6-101-3.2-99.4 42.7-99.4 42.7-3.9 41.1 42.6 56.9 42.6 56.9-26 34.8-40.2 73.5-40.2 73.5-63.1-102-56.8 14.2-56.8 14.2 11.8 68.8 61.5 113.8 61.5 113.8-7.1 62.5 18.9 73.5 18.9 73.5 5.5 193.2 171.5 189.9 175 189.8 3.5 0.1 169.5 3.5 175-189.7 0 0 26-11.1 18.9-73.5 0 0 49.7-45.1 61.5-113.8 0.1-0.1 6.4-116.3-56.7-14.3z m0 0"  horiz-adv-x="1024" />

    
    <glyph glyph-name="weixin" unicode="&#58980;" d="M571 384.9c-11.2-0.7-20-9.9-20.2-21.2 1.1-10.5 9.9-18.6 20.5-19 15.3 0 26 9.5 26 19 0 11.7-11 21.2-26 21.2h-0.3z m-67.2 98.5c6.9-0.5 13.8 2 18.7 6.9 5 4.9 7.6 11.6 7.3 18.6 0.5 7-2.1 13.8-7.1 18.7-5 4.9-11.9 7.4-18.9 6.8-15.3 0-29.9-9.5-29.9-25.5s14.6-25.5 29.9-25.5z m8.1 349.3C264.3 832.7 63.7 632 63.7 384.5s200.7-448.2 448.2-448.2S960.1 137 960.1 384.5C960 632 759.4 832.7 511.9 832.7z m-84.5-561.8c-24.6 0.2-48.9 4.1-72.3 11.7l-74-37.3 21.2 62.8c-51.8 36.5-82.7 82.8-82.7 138.7 0 99.3 93.5 175.4 207.4 175.4 100.7 0 190.6-59.9 207.9-144.6-6.4 1.4-12.9 2.1-19.5 2.2-99.3 0-176-74.5-176-164.3 0.1-14.8 2.1-29.5 5.8-43.8-6.1-0.6-12.2-0.8-18.3-0.7l0.5-0.1z m304.5-71.4l14.6-52.5-55.5 31.4c-21.2-4.4-41.6-11-62.8-11-97.8 0-175.4 67.2-175.4 150.4 0 83.3 77.4 150.4 175.4 150.4 92.4-0.1 175.9-67.3 175.9-150.6 0-46.7-31.4-88.3-72.3-118.3l0.1 0.2z m-372.7 335c-15.3 0-31.4-9.5-31.4-25.5s16-25.6 31.4-25.6c6.9-0.2 13.6 2.4 18.5 7.2 4.9 4.8 7.6 11.5 7.5 18.4 0.2 6.9-2.4 13.6-7.4 18.5-4.9 4.8-11.7 7.4-18.6 7z m326.4-149.4c-11.4-0.3-20.5-9.7-20.5-21.2 0.9-10.7 9.8-18.9 20.5-19 14.6 0 25.5 9.5 25.5 19 0 11.7-10.9 21.2-25.5 21.2z m0 0"  horiz-adv-x="1024" />

    
    <glyph glyph-name="jiantou" unicode="&#58981;" d="M719.5 396.9L333.8 802.4c-7.6 8-20.3 8.3-28.3 0.7-8-7.6-8.3-20.3-0.7-28.3l372.4-391.5-372.3-390.6c-7.6-8-7.3-20.7 0.7-28.3 3.9-3.7 8.8-5.5 13.8-5.5 5.3 0 10.6 2.1 14.5 6.2l383.2 402c0.6 0.5 1.3 1 1.8 1.5 7.9 7.7 8.2 20.3 0.6 28.3z"  horiz-adv-x="1024" />

    
    <glyph glyph-name="shang" unicode="&#58983;" d="M930.9 205.4l-402 383.1c-0.5 0.7-1 1.3-1.6 1.9-7.6 8-20.3 8.3-28.3 0.7L93.5 205.4c-8-7.6-8.3-20.3-0.7-28.3 3.9-4.1 9.2-6.2 14.5-6.2 5 0 9.9 1.8 13.8 5.5l391.5 372.4 390.7-372.3c3.9-3.7 8.8-5.5 13.8-5.5 5.3 0 10.6 2.1 14.5 6.2 7.6 7.9 7.3 20.6-0.7 28.2z"  horiz-adv-x="1024" />

    
    <glyph glyph-name="zuo" unicode="&#58984;" d="M347.1 384.2l372.3 390.7c7.6 8 7.3 20.7-0.7 28.3-8 7.6-20.7 7.3-28.3-0.7l-383.1-402c-0.7-0.5-1.3-1-1.9-1.6-8-7.6-8.3-20.3-0.7-28.3l385.7-405.5c3.9-4.1 9.2-6.2 14.5-6.2 5 0 9.9 1.8 13.8 5.5 8 7.6 8.3 20.3 0.7 28.3L347.1 384.2z"  horiz-adv-x="1024" />

    
    <glyph glyph-name="xia" unicode="&#58985;" d="M931.6 590.4c-7.6 8-20.3 8.3-28.3 0.7L511.8 218.7 121.1 591.1c-8 7.6-20.7 7.3-28.3-0.7-7.6-8-7.3-20.7 0.7-28.3l402-383.1c0.5-0.7 1-1.3 1.6-1.9 3.9-4.1 9.2-6.2 14.5-6.2 5 0 9.9 1.8 13.8 5.5l405.5 385.7c8 7.6 8.3 20.3 0.7 28.3z"  horiz-adv-x="1024" />

    
    <glyph glyph-name="xiaoxi" unicode="&#58986;" d="M801.4 731.4H222.6c-85.3 0-154.7-69.4-154.7-154.7v-385.8c0-85.3 69.4-154.7 154.7-154.7h588.8v0.3c80.7 5.2 144.7 72.4 144.7 154.4V576.7c0 85.3-69.4 154.7-154.7 154.7zM357.7 383.8L145.2 152.4c-5.8 11.6-9.1 24.7-9.1 38.5V576.7c0 13.9 3.3 26.9 9.1 38.6l212.5-231.5z m308.6 0l212.5 231.4c5.8-11.6 9.1-24.7 9.1-38.6v-385.8c0-13.8-3.3-26.9-9.1-38.5L666.3 383.8zM512 316.7l-82.3 89.7c-0.2 0.3-0.5 0.6-0.8 0.8L197.4 659.4c7.7 2.4 15.9 3.7 24.4 3.8h579.6c8.8 0 17.3-1.3 25.2-3.8L512 316.7z m-108 16.7l82.4-89.8 0.3-0.3 0.1-0.1 0.1-0.1c0.3-0.3 0.6-0.7 1-1 0.2-0.2 0.4-0.3 0.5-0.5l0.4-0.4c0.1-0.1 0.2-0.1 0.3-0.2l0.5-0.5c0.3-0.3 0.6-0.5 0.9-0.8 0.1-0.1 0.2-0.2 0.3-0.2 5.1-4 11.1-6.5 17.5-7.1h0.1c0.5-0.1 1.1-0.1 1.6-0.1h3.7c0.5 0 1.1 0.1 1.6 0.1h0.1c6.4 0.7 12.5 3.2 17.6 7.2l0.1 0.1c0.4 0.3 0.7 0.6 1.1 0.9 0.1 0.1 0.2 0.2 0.4 0.3l0.3 0.3c0.2 0.2 0.4 0.3 0.5 0.5l0.4 0.4 1.1 1.1 0.1 0.1 0.1 0.1c0.1 0.1 0.2 0.3 0.4 0.4l82.4 89.8 206.7-225.2c-8-2.5-16.5-3.8-25.3-3.8H222.6c-8.8 0-17.3 1.3-25.3 3.8l206.7 225z"  horiz-adv-x="1024" />

    
    <glyph glyph-name="gouwucheon" unicode="&#59025;" d="M932.785351 383.999991H498.941562c-18.606937 0-30.993891-12.051216-30.993891-30.039689s12.369284-30.039689 30.993891-30.039689h433.843789c18.606937 0 30.993891 12.051216 30.99389 30.039689s-12.386954 30.039689-30.99389 30.039689z m-495.831571 150.587193H994.843814c18.589266 0 30.993891 12.051216 30.99389 30.128041s-12.369284 30.039689-30.99389 30.039689H436.95378c-18.589266 0-30.993891-12.051216-30.993891-30.039689s12.404624-30.128041 30.993891-30.128041z m-176.704052 240.935976H1208.655717c24.738567 0 37.107851-24.084762 27.883899-39.139948 0 0-161.136425-551.157609-164.334768-560.151845-3.092321-6.025608-9.294633-30.039689-30.993891-30.039689H353.284412c-21.699258 0-40.288524 9.047247-43.380845 30.039689 0 15.055185-92.981672 496.927136-120.865572 632.459143-3.092321 21.080793-6.202312 27.106402-6.202312 27.106402H30.993891S0 835.761571 0 865.960293 30.993891 895.999982 30.993891 895.999982h151.841792c21.699258 0 37.107851-3.003969 43.380845-9.029577s9.312304-9.047247 12.369283-21.080793c6.237653-3.021639 21.734598-90.366452 21.734599-90.366452z m176.704052-722.807926c-52.675478 0-92.964002-39.157618-92.964002-90.366452s40.288524-90.348782 92.964002-90.348782 92.964002 39.157618 92.964002 90.348782-40.288524 90.366452-92.964002 90.366452z m526.825461 0c-52.675478 0-92.964002-39.157618-92.964001-90.366452s40.288524-90.348782 92.964001-90.348782S1056.690232-88.842382 1056.690232-37.651218s-40.235513 90.366452-92.910991 90.366452z"  horiz-adv-x="1239" />

    
    <glyph glyph-name="kuaihui" unicode="&#59026;" d="M753.114882-128a140.060895 140.060895 0 0 0-48.071894 8.584267L250.008182 46.157602a140.781973 140.781973 0 0 0 96.298303 264.567098l455.103481-165.676346a140.781973 140.781973 0 0 0-48.295084-272.97968z m-454.966133 426.655221a120.179733 120.179733 0 0 1-41.032794-233.165851l455.034806-165.642009a120.179733 120.179733 0 0 1 82.220106 225.852056l-455.103481 165.642009a120.368587 120.368587 0 0 1-41.170142 7.313795z m990.074978-291.659044a139.923546 139.923546 0 0 0-48.071893 8.498424l-409.126148 148.90269a140.1124 140.1124 0 0 0-89.139025 101.071155A185.815036 185.815036 0 0 1 592.314399 365.938703a139.06512 139.06512 0 0 0-56.19261-3.880089l-2.764134-0.652404a10.30112 10.30112 0 0 0-5.957481 0.343371L92.71008 519.923278A140.781973 140.781973 0 0 0 188.991215 784.404534l413.761652-150.602375A140.181074 140.181074 0 0 0 691.891892 532.816847a185.76353 185.76353 0 0 1 149.70961-100.470257 138.962109 138.962109 0 0 0 56.123936 3.914425l2.764133 0.652405a10.30112 10.30112 0 0 0 5.940313-0.343371l430.037422-156.50835a140.781973 140.781973 0 0 0-48.277916-272.979679z m-697.042451 379.664946h0.772584a206.297096 206.297096 0 0 0 168.955536-113.037624 10.163772 10.163772 0 0 0 0.858426-2.420763 119.664677 119.664677 0 0 1 76.348468-87.405003l409.126148-148.919858A120.179733 120.179733 0 0 1 1329.462544 260.764268l-34.337066 12.481524-392.816042 142.928039-1.974381-0.446381a10.558648 10.558648 0 0 0-3.674066-0.12018 118.80625 118.80625 0 0 1-51.093556-3.553887 10.507142 10.507142 0 0 0-3.656897-0.394876A206.297096 206.297096 0 0 0 673.006505 524.69613a9.47703 9.47703 0 0 0-0.858426 2.420764A119.699014 119.699014 0 0 1 595.748105 614.436054L181.986453 765.141439a120.179733 120.179733 0 1 1-82.237275-225.852055l431.82295-157.177923 1.974381 0.446382a10.558648 10.558648 0 0 0 3.674066 0.12018 118.823419 118.823419 0 0 1 51.093556 3.553886 10.30112 10.30112 0 0 0 2.884313 0.429214z m580.296425 61.995573a140.781973 140.781973 0 0 0-48.22641 8.584267L668.199316 622.865804A140.781973 140.781973 0 0 0 764.497619 887.415733l455.086312-165.642009a140.781973 140.781973 0 0 0-48.071893-273.134196zM716.271209 875.39776a120.179733 120.179733 0 0 1-41.032794-233.148682l455.10348-165.642009a120.179733 120.179733 0 0 1 82.202938 225.852055L757.441352 868.083965A120.351418 120.351418 0 0 1 716.271209 875.39776zM141.734324 652.753879m-84.385045-84.385045a119.338475 119.338475 0 1 1 168.77009 168.770089 119.338475 119.338475 0 1 1-168.77009-168.770089ZM715.257138 756.669774m-84.385045-84.385045a119.338475 119.338475 0 1 1 168.77009 168.77009 119.338475 119.338475 0 1 1-168.77009-168.77009ZM297.381194 180.128696m-84.385045-84.385045a119.338475 119.338475 0 1 1 168.77009 168.77009 119.338475 119.338475 0 1 1-168.77009-168.77009Z"  horiz-adv-x="1429" />

    
    <glyph glyph-name="tuanduion" unicode="&#59027;" d="M323.893645 205.567001c17.24306 22.415978 60.109308 50.625625 60.109308 74.576236a44.142234 44.142234 0 0 1-11.552851 29.864981 357.034807 357.034807 0 0 0-90.336392 238.885357c0 63.075115 11.328691 121.787735 43.866345 173.275513a109.269273 109.269273 0 0 0 6.431661 8.914662A42.969706 42.969706 0 0 1 341.412594 757.603577c0 22.571166-17.087873 40.986754-38.520997 42.004095v0.39659c-141.393094-8.949148-253.766118-131.443849-253.766118-280.803237 0-98.009555 48.40127-184.500745 121.632547-234.867724A318.893157 318.893157 0 0 1 113.804198 245.070853c-55.55714-47.935708-94.560943-114.442191-110.09694-187.690712A59.057482 59.057482 0 0 1 0 36.929872c0-17.639651 7.500731-42.849005 43.211109-62.885441 17.24306-9.6906 40.831567-18.105213 70.024068-25.036924 20.829617-4.931515 51.039458-10.880371 76.783348-12.759864q1.603605-0.172431 3.258938-0.206917h1.120799a40.917782 40.917782 0 0 1 40.417733 42.055824c-1.344959 56.971071 19.829519 137.909996 89.07765 227.470451zM1340.803126 57.380141c-15.518754 73.24852-54.522557 139.755004-110.131426 187.690712a319.513907 319.513907 0 0 1-56.988315 39.262448c73.214034 50.401465 121.632547 136.85817 121.632548 234.867724C1295.315933 668.560414 1182.873937 791.055114 1041.480842 800.004262a3.086508 3.086508 0 0 0 0-0.39659c-21.433124-1.017341-38.520997-19.432929-38.520997-42.004095A42.969706 42.969706 0 0 1 1012.16764 731.08375a105.4758 105.4758 0 0 0 6.448904-8.914662c32.537655-51.487778 43.866345-110.200398 43.866346-173.275513a357.034807 357.034807 0 0 0-90.457095-238.868114 44.056019 44.056019 0 0 1-11.483878-29.864981c0-23.950611 42.814519-52.194744 60.109308-74.576235 69.24813-89.560455 90.405365-170.49938 89.07765-227.504938a40.900539 40.900539 0 0 1 40.383247-42.073067h1.120799c1.103556 0 2.189869 0.086215 3.276181 0.206917 25.743889 1.879494 55.953731 7.828349 76.783348 12.759864 29.192501 6.897224 52.746521 15.346324 70.006825 25.036924 35.727621 20.036436 43.228352 45.24579 43.228352 62.885441a58.626405 58.626405 0 0 1-3.724501 20.484755zM919.210302 234.414641a387.382593 387.382593 0 0 1-82.059724 52.781008 328.118194 328.118194 0 0 1 158.343022 281.544689 327.083611 327.083611 0 0 1-94.836831 231.401869 320.858866 320.858866 0 0 1-457.492876 0 329.963202 329.963202 0 0 1 0-462.820982 325.89384 325.89384 0 0 1 63.592406-50.125576 386.52044 386.52044 0 0 1-82.059724-52.781008 397.590484 397.590484 0 0 1-132.564647-219.96972 59.988607 59.988607 0 0 1-4.172821-21.8642c0-18.639748 8.414613-45.452707 48.504729-67.247935 20.536485-11.190746 48.746131-20.984804 83.853002-29.0718 67.696255-15.518754 157.049793-24.140284 251.645222-24.140285s183.948967 8.62153 251.645222 24.140285c35.106871 8.086995 63.316517 17.881054 83.835759 29.0718 40.107358 21.846957 48.521972 48.659916 48.521972 67.247935a60.350711 60.350711 0 0 1-4.138335 21.8642 397.693943 397.693943 0 0 1-132.616376 219.96972z"  horiz-adv-x="1344" />

    
    <glyph glyph-name="gouwucheoff" unicode="&#59028;" d="M1208.249135 775.529412H260.234187s-15.484014 87.341176-21.684706 90.352941c-3.100346 12.047059-6.200692 15.058824-12.401384 21.082353S204.463391 896 182.778685 896H30.985744S0 896 0 865.882353s30.985744-30.117647 30.985744-30.117647h151.792941s3.100346-6.023529 6.200692-27.105882c27.885398-135.511696 120.824913-617.376332 120.824914-632.470589 3.100346-21.082353 21.684706-30.117647 43.369411-30.117647h687.763045c21.684706 0 27.885398 24.094118 30.985744 30.117647 3.100346 9.035294 164.194325 560.152803 164.194326 560.152803C1245.453287 751.435294 1233.051903 775.529412 1208.249135 775.529412zM1025.452734 203.294118h-653.730104l-96.004429 512H1171.044983zM529.716263-37.647059c0 51.182284-40.286782 90.352941-92.939516 90.352941s-92.939516-39.152941-92.939515-90.352941 40.269066-90.352941 92.939515-90.352941S529.716263-88.79391 529.716263-37.647059z m-123.92526 0c0 18.070588 12.401384 30.117647 30.985744 30.117647s30.968028-12.029343 30.968028-30.117647-12.401384-30.117647-30.968028-30.117647-30.932595 12.100208-30.932595 30.117647zM1056.438478-37.647059c0 51.182284-40.286782 90.352941-92.939516 90.352941s-92.957232-39.152941-92.957232-90.352941 40.286782-90.352941 92.957232-90.352941 92.939516 39.20609 92.939516 90.352941z m-123.92526 0c0 18.070588 12.401384 30.117647 30.985744 30.117647s30.968028-12.029343 30.968028-30.117647-12.401384-30.117647-30.968028-30.117647-30.985744 12.100208-30.985744 30.117647zM994.46699 594.823529H436.829896c-18.602076 0-30.985744-12.047059-30.985744-30.117647s12.401384-30.117647 30.985744-30.117647h557.637094c18.58436 0 30.985744 12.047059 30.985744 30.117647s-12.401384 30.117647-30.985744 30.117647zM932.513218 384H498.783668c-18.58436 0-30.985744-12.047059-30.985744-30.117647s12.401384-30.117647 30.985744-30.117647h433.72955c18.58436 0 30.985744 12.047059 30.985744 30.117647s-12.401384 30.117647-30.985744 30.117647z"  horiz-adv-x="1239" />

    
    <glyph glyph-name="kongjian" unicode="&#59029;" d="M930.741266 632.599776C817.127937 730.823822 708.19346 824.70322 674.61395 853.28559 674.61395 853.28559 171.876166 420.157653 113.86796 369.231381c29.90327-33.913714 56.082556-67.811513 84.10792-97.9535h35.521074v-397.38406h310.331966V137.56459h261.617804v-265.56459h310.331966V269.41589h35.521074c28.041278 30.141987 54.20465 64.039786 84.10792 97.937585-16.63061 15.134651-63.91247 56.512247-124.61022 109.268681V755.157031H930.741266zM1028.726595-111.098844h-332.61221V154.386174H456.744996v-263.607111H124.132786V288.194952H94.99341l-3.294293 3.548925c-16.264578 17.505906-31.590203 35.839363-47.743379 55.255004-11.713042 14.036554-23.87169 28.550541-36.507771 42.969041L0 398.27527l8.38692 7.368395c57.292055 50.305607 555.796593 479.789133 560.825563 484.117867L576.437648 896l7.272908-6.190725c33.086162-28.216337 135.129678-116.175556 237.762029-204.819097V794.338431h202.272784v-284.598284c65.249285-56.719135 105.91073-92.399353 120.949894-106.101704l8.116374-7.384309-7.256993-8.227776c-12.731568-14.323014-24.794728-28.884744-36.603258-42.969041-16.216835-19.415641-31.526545-37.765013-47.743379-55.23909l-3.294293-3.548925h-29.187119z m-310.331966 22.280244h288.051722V308.59729h41.775457c14.673132 15.994032 28.821087 32.927017 43.717021 50.783041 9.548676 11.474326 19.415641 23.251026 29.664553 35.011811-19.542957 17.505906-58.549298 51.594679-116.302872 101.852543l-3.835385 3.326122V772.058187h-157.712296v-135.782171l-18.428945 15.91446C723.391769 740.324754 618.006217 831.164491 576.51722 866.653736 517.060798 815.42509 111.528534 465.959468 31.462887 396.285963c10.185254-11.7767 19.988561-23.521572 29.537237-35.011812 14.911849-17.856024 29.043889-34.789009 43.732936-50.798955h41.775457v-397.41589H434.464752V176.666418h283.993535zM576.485391 286.317046c-67.986572 0-123.28932 55.700609-123.28932 124.132786s55.302748 124.132786 123.28932 124.132786 123.273405-55.700609 123.273405-124.132786-55.223175-124.132786-123.273405-124.132786z m0 225.985329c-55.700609 0-101.009076-45.706328-101.009076-101.852543s45.308467-101.852543 101.009076-101.852542 100.993162 45.690414 100.993162 101.852542-45.308467 101.884372-100.993162 101.884372z"  horiz-adv-x="1235" />

    
    <glyph glyph-name="wodeoff" unicode="&#59030;" d="M286.001299 624.97989c0-116.226286 96.779754-210.883056 215.737613-210.883057s215.723459 94.571851 215.723459 210.883057S620.69677 835.763873 501.696452 835.763873s-215.695153-94.571851-215.695153-210.783983zM501.696452 353.931473c-152.345317 0-276.228497 121.604511-276.228497 271.06257S349.393595 896 501.696452 896s276.256804-121.562052 276.256804-271.02011S654.041769 353.931473 501.696452 353.931473z m-92.264875-80.34786c-158.516123 0-287.494464-126.048624-287.494465-281.040594v-20.069273c0-40.19516 166.158864-40.19516 287.494465-40.19516h205.009467c100.487899 0 287.508618 0 287.508618 40.19516v20.05512c0 154.99197-128.992495 281.040594-287.508618 281.040594z m205.051927-401.583613H409.516496c-194.437008 0-347.985349 0-347.985349 100.487899v20.012661c0 188.237896 156.124228 341.27672 347.985349 341.27672h204.967008c191.861121 0 347.985349-153.095438 347.985349-341.27672v-20.083427c-0.04246-100.417133-161.304308-100.417133-347.985349-100.417133z"  horiz-adv-x="1024" />

    
    <glyph glyph-name="wodeon" unicode="&#59031;" d="M615.521339 333.767137H408.478661C214.73856 333.767137 56.983637 180.688013 56.983637-7.495135v-20.081776c0-100.423089 155.111463-100.423089 351.495024-100.423089H615.521339c188.566876 0 351.4666 0 351.495024 100.423089v20.081776c0 188.183148-157.698075 341.262273-351.495024 341.262272zM780.638159 624.974199C780.638159 774.443436 655.514344 896 501.639339 896S222.626306 774.443436 222.626306 624.974199s125.066966-271.054225 279.013033-271.054226 278.99882 121.599201 278.99882 271.054226z"  horiz-adv-x="1024" />

    
    <glyph glyph-name="shouyeoff" unicode="&#59032;" d="M901.287204-42.963274a28.281195 28.281195 0 0 0-28.17083-28.350174H732.303613V183.796729c0 46.905397-37.910597 85.036726-84.498693 85.036726h-168.997386c-46.588096 0-84.498693-38.145124-84.498693-85.036726v-255.110177H253.482284a28.2674 28.2674 0 0 0-28.157034 28.350174V474.223911L546.406488 831.367122a21.852397 21.852397 0 0 0 33.799478 0l321.081238-357.143211zM675.989545-71.313448H450.6505V183.796729a28.2674 28.2674 0 0 0 28.157034 28.350174h168.997386A28.2674 28.2674 0 0 0 675.989545 183.796729zM1119.342117 316.166518l-497.335165 553.207771A78.235443 78.235443 0 0 1 563.306227 896C540.943389 896 520.098079 886.536146 504.605502 869.360494L7.270337 316.166518a28.501927 28.501927 0 0 1 1.972785-40.007544 28.005281 28.005281 0 0 1 39.759222 2.041764l119.93986 133.390672v-454.554684c0-46.905397 37.896802-85.036726 84.484897-85.036726h619.63409c46.588096 0 84.498693 38.15892 84.498694 85.036726V411.577614l119.884676-133.390671a27.991485 27.991485 0 0 1 39.773018-1.986582 28.419152 28.419152 0 0 1 1.972786 40.007545z"  horiz-adv-x="1126" />

    
    <glyph glyph-name="zhengzhuang" unicode="&#59033;" d="M900.947976-128H215.575759c-64.100322 0-108.878176 39.76552-108.878175 96.703203v0.923723l32.633166 765.009257a108.893319 108.893319 0 0 0 108.878176 108.166455h617.834433a108.893319 108.893319 0 0 0 108.878175-108.136169l34.828902-765.47869v-0.484576c0.075715-56.998255-44.702138-96.703203-108.80246-96.703203zM882.473515 787.848688A108.893319 108.893319 0 0 1 773.595339 896h-617.834433a108.893319 108.893319 0 0 1-108.878176-108.166455L14.173849 22.824288v-0.923723c0-56.937683 44.777853-96.718346 108.878175-96.718346h685.38736c64.115465 0 108.878176 39.750377 108.878175 96.718346v0.484576zM818.267191-44.016918H113.23936c-30.891722 0-66.932064 14.234421-67.189495 54.333087L79.637041 797.161634v0.954009a67.219781 67.219781 0 0 0 67.204638 67.06835h635.566886a67.219781 67.219781 0 0 0 67.204638-67.06835V797.570495l35.843483-787.284612c-0.287717-40.06838-36.328059-54.302801-67.189495-54.302801zM638.716631 718.978321a35.237763 35.237763 0 0 1-15.143001-67.098637c-5.860341-61.934873-57.800834-110.543906-120.81086-110.543906h-75.715004c-62.97974 0-114.874804 48.563604-120.795718 110.407619a35.328621 35.328621 0 1 1-32.905741 1.696016 154.21632 154.21632 0 0 1 44.838426-98.95951 152.671734 152.671734 0 0 1 108.878176-45.762148h75.715004a152.55059 152.55059 0 0 1 108.847889 45.762148 154.140605 154.140605 0 0 1 44.823283 98.777794 35.237763 35.237763 0 0 1-17.747597 65.720624z"  horiz-adv-x="1024" />

    
    <glyph glyph-name="ruanzhuang" unicode="&#59034;" d="M1191.053871 397.067092a113.91351 113.91351 0 0 1-210.857074 59.945779 151.517365 151.517365 0 0 1-16.969945-21.970018L902.551034 298.195124c-314.054175 131.902753-526.633037-5.124042-526.633037-5.124042L325.338746 414.822172a149.864448 149.864448 0 0 1-34.339345 52.659171A114.10635 114.10635 0 1 1 133.875894 305.082277a267.827604 267.827604 0 0 1 44.711397-32.43849s65.730988-163.569883 91.089484-214.245554c18.016792-36.088681 66.791609-52.232168 93.417343-58.554575l-34.13273-59.312161a45.579178 45.579178 0 1 1 78.912999-45.634275l58.444379 101.296245h356.065808l58.361734-101.296245a45.579178 45.579178 0 1 1 78.912999 45.634275l-33.292498 57.659244c67.907328 11.653063 92.508238 70.34538 92.508239 70.345381l76.034168 204.066342s47.011706 13.471271 70.428026 52.163296a114.80884 114.80884 0 0 1 25.716629 72.301332z m-784.722207-17.837726c212.620186 81.15821 488.368016-3.429802 465.805703 5.124041 55.634422 192.70254 207.427273 172.412987 207.427272 172.412987C1049.219844 845.778881 790.772542 787.182983 790.772542 787.182983c-166.669101 134.781583-303.503056 2.947701-303.503056 2.947702-278.337399 30.45499-288.502837-233.295419-288.502837-233.295419C365.835205 566.945606 406.331664 379.229366 406.331664 379.229366zM843.252647-99.042084a55.717067 55.717067 0 0 0-14.352826 1.914629 54.849286 54.849286 0 0 0-33.540435 25.771726l-55.579324 96.420141H394.788796L339.113052-71.369503a55.221192 55.221192 0 1 0-95.607458 55.262515l27.837872 48.389137c-29.36682 8.512521-70.317832 26.171181-87.39797 60.345234C160.308787 139.790606 103.172966 281.19763 93.765115 304.531305a278.778177 278.778177 0 0 0-43.072255 31.584483 123.775913 123.775913 0 1 0 170.457036 176.311116 159.189653 159.189653 0 0 0 36.143778-55.648196l46.267894-111.379038c19.655935 10.757733 67.755811 33.912341 139.12049 47.63155a609.182453 609.182453 0 0 0 168.983184 8.071743c68.981724-6.129566 139.21691-23.60916 208.901124-51.942907L877.688412 478.115108l0.385681 0.606069a160.594632 160.594632 0 0 0 17.396948 22.686282 123.555524 123.555524 0 0 0 228.198926-65.827408 124.946729 124.946729 0 0 0-27.452192-77.866151c-20.881848-33.994987-57.755665-49.587501-70.910127-54.298314L950.692233 103.316244c-1.019299-2.424278-24.201455-56.144071-86.475092-73.169113l26.722153-46.254119A55.400258 55.400258 0 0 0 870.801259-91.617733a54.794189 54.794189 0 0 0-27.548612-7.424351zM383.645382 44.375989H750.964798l61.144144-106.062155a35.937164 35.937164 0 1 1 62.204765 36.006035l-40.207199 69.601568 13.636563 2.341632c60.5243 10.385827 83.513617 60.606946 85.180308 64.422429l77.659536 208.419022 4.66949 1.377431c0.427003 0.123969 43.747196 13.030493 64.835658 47.879487l0.344358 0.564747 0.413229 0.509649a104.38169 104.38169 0 1 1-169.423963 121.131246l-0.495875-0.812684-0.647392-0.688715a142.357451 142.357451 0 0 1-15.564966-20.069164l-64.215814-144.878149-8.719135 3.663965c-70.483123 29.600983-141.544767 47.796841-211.201433 54.064151a589.388775 589.388775 0 0 1-163.335719-7.562094c-89.808474-17.093914-142.564066-50.51038-143.142587-50.854738l-9.642014-6.212212-4.435327 10.633765-50.70322 122.067898-0.09642 0.289261c-0.09642 0.247938-9.642014 27.341997-31.928841 48.857463l-0.495875 0.468326-0.427003 0.550973A104.464336 104.464336 0 1 1 62.456118 351.405268l0.757586-0.60607a258.199364 258.199364 0 0 1 43.113578-31.267674l2.87883-1.666691L110.459574 314.724291c0.647392-1.625368 65.868731-163.776497 90.772675-213.501741 6.887153-13.912049 27.548612-39.353192 87.012291-53.471856l12.575941-2.989024-40.565331-70.524446a35.937164 35.937164 0 1 1 62.190991-36.006036z m-61.405855 360.363391l-2.369181 11.019445A288.020736 288.020736 0 0 1 279.883536 505.402008c-39.077706 57.25979-92.081235 84.298752-157.536736 80.331752l-10.633765-0.647393 0.41323 10.633764c0 1.212139 1.267236 29.821372 12.658587 67.425228 10.564893 34.83522 32.259424 84.229881 75.676036 121.668444 51.364387 44.284393 120.828211 62.397606 206.531943 53.857536a248.254315 248.254315 0 0 0 89.7947 48.21007 217.716679 217.716679 0 0 0 100.951888 5.509723c40.468911-7.355479 80.331752-26.350247 118.555451-56.474654a295.775671 295.775671 0 0 0 62.31496 3.967c35.551484-1.377431 87.508165-9.876177 133.114892-42.548831 56.901658-40.758171 90.69003-108.417562 100.41469-201.104866l1.281011-12.190261-12.148938 1.625368c-0.330583 0-36.612105 4.449101-78.69261-13.650337a179.534303 179.534303 0 0 1-64.739238-47.82439c-22.397021-25.771726-39.945487-59.229515-52.094425-99.505586a10.330729 10.330729 0 0 0-0.082645-5.275559c-0.785135-2.58957-3.650191-8.388552-13.361077-6.281084-1.377431 0.28926-3.443576 0.771361-6.115792 1.377431-175.994306 40.647977-337.015942 38.568057-453.408827-5.840306zM134.385543 605.362146c66.116668 0 121.806187-30.799348 161.751674-89.629409A309.384685 309.384685 0 0 0 335.944961 430.428461c118.527902 41.984084 278.502691 43.251321 452.389529 3.402253 13.016719 41.625952 31.680904 76.433623 55.400258 103.582781a198.239811 198.239811 0 0 0 72.177363 52.796914 192.468376 192.468376 0 0 0 75.758682 15.317028C980.995706 686.63055 950.471845 745.860066 900.608857 781.673261c-79.890974 57.342435-183.707918 34.862768-184.740991 34.628605l-4.559295-1.019299-3.636417 2.933928c-36.749848 29.711178-74.904675 48.320265-113.40386 55.331386a198.55662 198.55662 0 0 1-92.081235-5.096493c-52.163296-15.275705-84.93237-46.446959-85.262953-46.83264l-3.250737-3.140542-4.476649 0.495875c-82.094863 8.980847-148.04624-7.410577-196.049696-48.71972-62.549123-53.788665-77.452922-136.062594-80.841401-164.892215z"  horiz-adv-x="1191" />

    
    <glyph glyph-name="shouyeon" unicode="&#59035;" d="M675.907591-71.306527V183.80031a28.263973 28.263973 0 0 1-28.153621 28.346737H478.749485a28.263973 28.263973 0 0 1-28.153621-28.346737v-255.106837zM621.931542 869.349929l497.164518-553.140702a28.401913 28.401913 0 0 0-1.972547-40.002694 27.974298 27.974298 0 0 0-39.809578 1.972547l-119.870142 133.402088v-454.554752c0-46.89971-37.906001-85.026416-84.488448-85.026416H253.396376c-46.582448 0-84.474655 38.154294-84.474654 85.026416V411.581168l-119.925319-133.402088a27.988092 27.988092 0 0 0-39.754401-2.027723 28.498471 28.498471 0 0 0-1.972547 40.002694l497.27487 553.140702C520.035024 886.537294 540.877807 896 563.237934 896a78.19837 78.19837 0 0 0 58.693608-26.650071z"  horiz-adv-x="1126" />

    
    <glyph glyph-name="tuanduioff" unicode="&#59036;" d="M1204.514061 258.629361a312.858602 312.858602 0 0 1-55.716858 38.444632c71.705909 49.35163 119.099006 134.007487 119.099006 229.975555 0 146.248312-110.066121 266.191512-248.480305 274.954254v-0.388329c-21.003567-0.99615-37.718625-19.028151-37.718625-41.129172s16.765709-40.183674 37.803044-41.129172v-0.151955c94.54982-8.644555 169.041572-91.493835 169.041572-192.155626 0-106.368548-83.15319-192.949169-185.3683-192.94917-5.318427 0-10.569319 0.270142-15.752675 0.759776a40.521352 40.521352 0 0 1-6.601604 0.557168c-22.523118 0-40.77461-19.011267-40.77461-42.446116s18.251492-42.446116 40.77461-42.446115h2.329978c6.618487 0.60782 13.287627 0.962382 20.024301 0.962382 108.445267 0 203.602908-78.071137 230.110626-187.107342-9.674473-4.913214-29.37798-12.578503-66.843346-19.669739-13.017484-2.465049-27.014234-4.609304-41.736992-6.415881-21.391897-0.557169-38.579704-18.758009-38.579704-41.162939 0-22.742609 17.711207-41.179824 39.575853-41.179824h1.097454q1.68839 0 3.191056 0.202607c25.207658 1.840345 54.788244 7.665289 75.183991 12.494083 28.584437 6.753559 51.647839 15.026668 68.565504 24.515418 34.96655 19.619088 42.311045 44.303344 42.311045 61.575571a57.827346 57.827346 0 0 1-3.630038 20.024301c-15.263042 71.807212-53.454416 136.928401-107.904983 183.865633zM42.311045-6.751725c16.883897-9.48875 39.981067-17.728091 68.565503-24.515417 20.395747-4.828794 49.976334-10.653739 75.183992-12.494084q1.570202-0.168839 3.191056-0.202607h1.097453c21.847762 0 39.575853 18.437215 39.575854 41.179824 0 22.404931-17.187807 40.605771-38.579704 41.16294-14.722758 1.806577-28.702624 3.950832-41.736992 6.41588C112.142841 51.801629 92.439333 59.517569 82.731093 64.430783c26.507718 109.036204 121.665358 187.107341 230.110626 187.107341 6.753559 0 13.405814-0.354562 20.024301-0.962382h2.329978c22.506234 0 40.77461 18.994384 40.77461 42.446116S357.735999 335.45109 335.229765 335.45109a40.521352 40.521352 0 0 1-6.601603-0.557169c-5.20024-0.489633-10.434248-0.759775-15.752676-0.759775-102.21511 0-185.3683 86.563737-185.3683 192.949169 0 100.661791 74.457984 183.511071 169.041572 192.155627v0.151955C317.586093 720.302627 334.301151 738.351513 334.301151 760.486301s-16.731941 40.133022-37.718625 41.129172v0.388329c-138.447951-8.762742-248.480305-128.705943-248.480305-274.954254 0-95.968068 47.393098-180.657693 119.099006-229.975555A312.250782 312.250782 0 0 1 111.433717 258.629361c-54.399915-46.937232-92.591288-112.058421-107.803679-183.781214A57.827346 57.827346 0 0 1 0 54.823846c0-17.272226 7.344495-41.956483 42.311045-61.575571zM974.757998 575.556982a320.270633 320.270633 0 0 1-92.861431 226.581892 314.175546 314.175546 0 0 1-447.963543 0 323.090244 323.090244 0 0 1 0-453.180667 319.105644 319.105644 0 0 1 62.267811-49.081487 378.469424 378.469424 0 0 1-80.350464-51.681607 389.308886 389.308886 0 0 1-129.803396-215.387868 58.739076 58.739076 0 0 1-4.085903-21.408781c0-18.251492 8.239342-44.505951 47.494401-65.847196 20.108721-10.957649 47.730775-20.547702 82.106389-28.46625 66.286178-15.195507 153.778529-23.637455 246.403585-23.637455s180.117408 8.441948 246.403586 23.637455c34.375613 7.918547 61.997668 17.508601 82.089505 28.46625 39.271943 21.391897 47.511285 47.646356 47.511285 65.847196a59.093638 59.093638 0 0 1-4.052135 21.408781 389.410189 389.410189 0 0 1-129.803397 215.387868 379.313619 379.313619 0 0 1-80.350463 51.681607 321.283667 321.283667 0 0 1 155.044821 275.680262z m-23.975133-557.168585c-11.278443-6.58472-37.347179-17.407297-86.850764-26.811627-57.506552-10.923881-130.647591-16.883897-205.983538-16.883897s-148.426334 6.010667-205.983537 16.883897c-49.486701 9.40433-75.572321 20.260676-86.83388 26.811627 31.133905 137.586873 153.272013 236.779765 292.78365 236.779765s261.71728-99.260428 292.868069-236.8473zM657.999215 336.345937c-130.377449 0-236.458971 107.314046-236.458971 239.211045S527.621766 814.751144 657.999215 814.751144s236.374551-107.297162 236.374551-239.194162-105.997102-239.211046-236.374551-239.211045z"  horiz-adv-x="1344" />

    
    <glyph glyph-name="chuzuwu" unicode="&#59037;" d="M1137.777778-99.555556v28.444445h-56.854432V440.888889H711.111111V896H113.708863v-967.111111H0v-56.888889h1137.777778v28.444444z m-85.333334 483.555556v-455.111111z m-28.444444-455.111111H711.111111V384h312.888889z m-341.333333 0V839.145568z m-28.444445 0H170.666667V839.145568h483.555555zM170.666667-99.555556z m512 0z m28.444444 0z m341.333333 0zM227.555556 668.444444h369.777777v-56.888888H227.555556zM768 270.222222h199.111111v-56.888889H768zM768 99.555556h199.111111v-56.888889H768zM227.555556 412.444444h369.777777v-56.888888H227.555556zM227.555556 156.444444h369.777777v-56.888888H227.555556z"  horiz-adv-x="1137" />

    
    <glyph glyph-name="yan" unicode="&#59038;" d="M558.494651 383.896796a228.885815 228.885815 0 0 1 15.909104-83.993225 221.512886 221.512886 0 0 1 45.452138-71.265942 207.194693 207.194693 0 0 1 67.895949-47.556246 200.146789 200.146789 0 0 1 160.510883 0 211.59108 211.59108 0 0 1 68.118334 47.556246 221.512886 221.512886 0 0 1 45.452138 71.265942 230.35698 230.35698 0 0 1 0 168.157516 219.785124 219.785124 0 0 1-45.452138 71.248835 208.939562 208.939562 0 0 1-68.118334 47.710205A203.089118 203.089118 0 0 1 768.152689 603.818772a200.523133 200.523133 0 0 1-80.400847-16.798645 207.382865 207.382865 0 0 1-67.947269-47.710205 221.068116 221.068116 0 0 1-45.315285-71.248835 230.20302 230.20302 0 0 1-15.994637-84.164291z m964.279859 53.115879s-0.906648 20.989753-185.70885 201.857445C1072.735046 878.498857 837.211885 912.848836 662.091998 890.045787s-307.079915-121.456598-317.583345-127.666281c-83.257643-48.445787-318.182075-289.665434-332.277883-319.892731-33.443331-71.847565 12.299619-143.558278 12.299619-143.558278s379.08144-426.928497 723.607621-426.928497 508.064926 155.173634 577.226761 211.573973 154.061708 159.091037 197.409739 219.768017c30.449682 68.118335 0 133.670685 0 133.670685zM768.152689 15.181934c-194.41609 0-352.087283 165.146761-352.087283 368.868821S573.805025 752.936683 768.152689 752.936683s352.070176-165.163867 352.070177-368.885928S962.637206 15.181934 768.152689 15.181934z"  horiz-adv-x="1536" />

    
    <glyph glyph-name="biyan" unicode="&#59039;" d="M1050.661391 419.889014c-68.018308-47.502942-139.744832-77.082837-212.879105-88.155985-58.507419-8.875685-118.456922-5.734002-178.320586 8.858518-103.58972 25.322313-171.676698 77.632203-172.346237 78.198736a37.768874 37.768874 0 0 1-52.361393-6.111691 36.807484 36.807484 0 0 1 6.146026-51.932201c1.716767-1.304743 21.425252-16.635472 55.709088-35.485573l-49.786242-103.14336a36.790316 36.790316 0 0 1 17.52819-49.357051 38.198065 38.198065 0 0 1 16.017436-3.691049 37.459855 37.459855 0 0 1 33.734472 21.064731l49.923583 103.503881a596.181669 596.181669 0 0 1 74.33601-24.034738 552.146596 552.146596 0 0 1 93.924322-15.159052v-132.191057a37.271011 37.271011 0 0 1 74.524854 0v131.830536c13.40795 0.927054 26.833068 2.403474 40.052174 4.257582a534.532567 534.532567 0 0 1 131.367009 36.961993l37.082167-101.838617a37.339682 37.339682 0 0 1 47.691787-22.18063 36.807484 36.807484 0 0 1 22.31797 47.314098l-40.069341 109.993261c16.20628 9.425051 32.412561 19.588311 48.25832 30.678626a37.013496 37.013496 0 0 1 9.1332 51.503009 37.580029 37.580029 0 0 1-51.983704 9.116033z m471.819069 17.081831s30.438279-65.546163 0-133.667477c-43.348366-60.756383-128.242493-163.213037-197.428203-219.746173S1092.447499-128 748.081211-128 24.5326 298.959948 24.5326 298.959948-21.21924 370.669304 12.240549 442.53317c14.094657 30.146428 248.931212 271.386524 332.211578 319.850856 10.506614 6.146026 142.354318 105.014636 317.601891 127.658793s410.444649-11.553842 674.740926-251.128674C1521.570574 457.984073 1522.48046 436.970845 1522.48046 436.970845z"  horiz-adv-x="1536" />

    
    <glyph glyph-name="youhuilingquan" unicode="&#58987;" d="M581 529.2L514.1 409l-66.9 120.2h-56.3L474 391.7h-56.2v-24.2H489l0.4-0.4v-33.7h-71.6v-24.3h71.6v-59.5h49.4v59.5h72.1v24.3h-72.1v33.7l0.5 0.4h71.6v24.2h-56.7l83.1 137.5zM65.7 706.3v-181.2h-0.3l0.3-19.9v-19.8h0.3v-0.3l19.9 0.3h3.6c61.5-0.8 111.3-46.1 111.3-101.6 0-55.5-49.8-100.8-111.4-101.6h-3.5l-19.9 0.3v-0.3h-0.3v-19.8l-0.3-19.9h0.3v-181.2h894.4V282.2h-20.6c-62.3 0-113 45.6-113 101.6 0 56 50.7 101.6 113 101.6h20.6V706.3H65.7z m720.8-322.5c0-72 58.4-131.6 133.6-140.5v-142H105.7V243.2c75.9 8.2 135.1 68.2 135.1 140.6s-59.1 132.4-135.1 140.6V666.3h814.4v-142c-75.2-8.9-133.6-68.5-133.6-140.5z"  horiz-adv-x="1024" />

    


  </font>
</defs>
</svg>
